<svg width="88" height="88" viewBox="0 0 88 88" fill="none" xmlns="http://www.w3.org/2000/svg">
<path d="M40.1115 43.9972L32.3345 36.2202C31.8335 35.7016 31.5563 35.0069 31.5626 34.2859C31.5689 33.5648 31.8581 32.8751 32.368 32.3652C32.8778 31.8554 33.5676 31.5661 34.2886 31.5599C35.0096 31.5536 35.7043 31.8308 36.223 32.3317L44 40.1087L51.777 32.3317C52.0306 32.0691 52.3341 31.8596 52.6696 31.7155C53.0051 31.5713 53.366 31.4955 53.7311 31.4923C54.0962 31.4891 54.4584 31.5587 54.7963 31.697C55.1343 31.8352 55.4413 32.0394 55.6995 32.2976C55.9577 32.5559 56.1619 32.8629 56.3002 33.2009C56.4385 33.5388 56.5081 33.9009 56.5049 34.2661C56.5017 34.6312 56.4259 34.9921 56.2817 35.3276C56.1376 35.6631 55.9281 35.9666 55.6655 36.2202L47.8885 43.9972L55.6655 51.7742C55.9281 52.0279 56.1376 52.3314 56.2817 52.6669C56.4259 53.0024 56.5017 53.3632 56.5049 53.7284C56.5081 54.0935 56.4385 54.4556 56.3002 54.7936C56.1619 55.1316 55.9577 55.4386 55.6995 55.6968C55.4413 55.955 55.1343 56.1592 54.7963 56.2975C54.4584 56.4358 54.0962 56.5053 53.7311 56.5022C53.366 56.499 53.0051 56.4231 52.6696 56.279C52.3341 56.1349 52.0306 55.9254 51.777 55.6627L44 47.8857L36.223 55.6627C35.7043 56.1637 35.0096 56.4409 34.2886 56.4346C33.5676 56.4283 32.8778 56.1391 32.368 55.6292C31.8581 55.1194 31.5689 54.4296 31.5626 53.7086C31.5563 52.9875 31.8335 52.2929 32.3345 51.7742L40.1115 43.9972Z" fill="black"/>
<path d="M44 77C48.3336 77 52.6248 76.1464 56.6286 74.488C60.6323 72.8296 64.2702 70.3989 67.3345 67.3345C70.3989 64.2702 72.8296 60.6323 74.488 56.6286C76.1464 52.6248 77 48.3336 77 44C77 39.6664 76.1464 35.3752 74.488 31.3714C72.8296 27.3677 70.3989 23.7298 67.3345 20.6655C64.2702 17.6011 60.6323 15.1704 56.6286 13.512C52.6248 11.8536 48.3336 11 44 11C35.2479 11 26.8542 14.4768 20.6655 20.6655C14.4768 26.8542 11 35.2479 11 44C11 52.7521 14.4768 61.1458 20.6655 67.3345C26.8542 73.5232 35.2479 77 44 77V77ZM44 82.5C33.7892 82.5 23.9965 78.4438 16.7764 71.2236C9.55624 64.0035 5.5 54.2108 5.5 44C5.5 33.7892 9.55624 23.9965 16.7764 16.7764C23.9965 9.55624 33.7892 5.5 44 5.5C54.2108 5.5 64.0035 9.55624 71.2236 16.7764C78.4438 23.9965 82.5 33.7892 82.5 44C82.5 54.2108 78.4438 64.0035 71.2236 71.2236C64.0035 78.4438 54.2108 82.5 44 82.5Z" fill="black"/>
</svg>
