<svg width="31" height="31" viewBox="0 0 31 31" fill="none" xmlns="http://www.w3.org/2000/svg">
<rect width="31" height="31" rx="15.5" fill="black"/>
<g clip-path="url(#clip0_1634_563)">
<path d="M23.4516 8.20052C21.9641 7.51786 20.3945 7.03064 18.7819 6.751C18.7673 6.74854 18.7523 6.75066 18.7389 6.75708C18.7256 6.7635 18.7146 6.77389 18.7074 6.78684C18.5052 7.14528 18.2815 7.61411 18.1253 7.98115C16.387 7.71736 14.6189 7.71736 12.8806 7.98115C12.7063 7.57228 12.5091 7.17354 12.2899 6.78684C12.2825 6.77404 12.2715 6.76376 12.2582 6.75736C12.2449 6.75096 12.2299 6.74874 12.2153 6.751C10.6024 7.02914 9.03241 7.51662 7.54561 8.20052C7.53289 8.20537 7.52225 8.21449 7.5155 8.22632C4.54191 12.6695 3.7261 17.0037 4.12612 21.2835C4.12755 21.3036 4.14046 21.3236 4.15623 21.3365C5.8878 22.6192 7.82461 23.5985 9.88406 24.2327C9.8986 24.2373 9.91422 24.2371 9.92866 24.2322C9.9431 24.2273 9.9556 24.218 9.96435 24.2055C10.4059 23.6033 10.7988 22.9681 11.1372 22.3C11.1442 22.2863 11.1466 22.2706 11.144 22.2553C11.1415 22.2401 11.134 22.2261 11.1228 22.2154C11.1154 22.2084 11.1066 22.2031 11.097 22.1997C10.4793 21.9623 9.88104 21.677 9.30769 21.3466C9.29168 21.3375 9.27977 21.3226 9.27443 21.305C9.26909 21.2874 9.27073 21.2684 9.27902 21.2519C9.2839 21.2413 9.29127 21.2319 9.30052 21.2247C9.42096 21.1344 9.54139 21.0397 9.65609 20.9451C9.66623 20.937 9.67838 20.9317 9.69126 20.93C9.70414 20.9282 9.71726 20.93 9.72921 20.9351C13.4842 22.6498 17.5489 22.6498 21.258 20.9351C21.2704 20.9297 21.284 20.9278 21.2974 20.9296C21.3108 20.9314 21.3234 20.9367 21.334 20.9451C21.4487 21.0397 21.5691 21.1344 21.6896 21.2247C21.6993 21.2318 21.7072 21.2413 21.7124 21.2522C21.7176 21.2631 21.72 21.2751 21.7195 21.2872C21.7189 21.2993 21.7153 21.311 21.7091 21.3214C21.7029 21.3317 21.6942 21.3404 21.6838 21.3466C21.1118 21.6801 20.5128 21.9649 19.8931 22.1982C19.8832 22.2018 19.8742 22.2075 19.8668 22.2149C19.8593 22.2224 19.8536 22.2313 19.8501 22.2412C19.8467 22.2508 19.8454 22.261 19.8462 22.2711C19.8469 22.2812 19.8497 22.291 19.8544 22.3C20.1985 22.9667 20.5927 23.6033 21.0257 24.2055C21.0345 24.218 21.047 24.2273 21.0614 24.2322C21.0759 24.2371 21.0915 24.2373 21.106 24.2327C23.1689 23.6005 25.1089 22.621 26.8425 21.3365C26.8511 21.3305 26.8584 21.3226 26.8636 21.3134C26.8688 21.3043 26.8719 21.294 26.8726 21.2835C27.3514 16.3356 26.0711 12.0372 23.4803 8.22776C23.4777 8.22147 23.4738 8.21579 23.4689 8.2111C23.4639 8.20641 23.4581 8.2028 23.4516 8.20052V8.20052ZM11.6978 18.6769C10.5665 18.6769 9.63602 17.6389 9.63602 16.3657C9.63602 15.0911 10.5493 14.0531 11.6978 14.0531C12.8548 14.0531 13.7767 15.0997 13.7595 16.3657C13.7595 17.6389 12.8462 18.6769 11.6978 18.6769ZM19.3196 18.6769C18.1898 18.6769 17.2578 17.6389 17.2578 16.3657C17.2578 15.0911 18.1711 14.0531 19.3196 14.0531C20.4766 14.0531 21.3999 15.0997 21.3813 16.3657C21.3813 17.6389 20.4766 18.6769 19.3196 18.6769Z" fill="white"/>
</g>
<defs>
<clipPath id="clip0_1634_563">
<rect width="22.94" height="22.94" fill="white" transform="translate(4.03125 4.03125)"/>
</clipPath>
</defs>
</svg>
