<svg width="6" height="794" viewBox="0 0 6 794" fill="none" xmlns="http://www.w3.org/2000/svg">
<path d="M3 0.333333C1.52724 0.333333 0.333333 1.52724 0.333333 3C0.333333 4.47276 1.52724 5.66667 3 5.66667C4.47276 5.66667 5.66667 4.47276 5.66667 3C5.66667 1.52724 4.47276 0.333333 3 0.333333ZM2.99997 788.333C1.52721 788.333 0.333299 789.527 0.333299 791C0.333299 792.473 1.52721 793.667 2.99997 793.667C4.47272 793.667 5.66663 792.473 5.66663 791C5.66663 789.527 4.47273 788.333 2.99997 788.333ZM2.5 3L2.5 5.98485L3.5 5.98485L3.5 3L2.5 3ZM2.5 11.9545L2.5 17.9242L3.5 17.9242L3.5 11.9545L2.5 11.9545ZM2.5 23.8939L2.5 29.8636L3.5 29.8636L3.5 23.8939L2.5 23.8939ZM2.5 35.8333L2.5 41.803L3.5 41.803L3.5 35.8333L2.5 35.8333ZM2.5 47.7727L2.5 53.7424L3.5 53.7424L3.5 47.7727L2.5 47.7727ZM2.5 59.7121L2.5 65.6818L3.5 65.6818L3.5 59.7121L2.5 59.7121ZM2.5 71.6515L2.5 77.6212L3.5 77.6212L3.5 71.6515L2.5 71.6515ZM2.5 83.5909L2.5 89.5606L3.5 89.5606L3.5 83.5909L2.5 83.5909ZM2.5 95.5303L2.5 101.5L3.5 101.5L3.5 95.5303L2.5 95.5303ZM2.5 107.47L2.5 113.439L3.5 113.439L3.5 107.47L2.5 107.47ZM2.49999 119.409L2.49999 125.379L3.49999 125.379L3.49999 119.409L2.49999 119.409ZM2.49999 131.348L2.49999 137.318L3.49999 137.318L3.49999 131.348L2.49999 131.348ZM2.49999 143.288L2.49999 149.258L3.49999 149.258L3.49999 143.288L2.49999 143.288ZM2.49999 155.227L2.49999 161.197L3.49999 161.197L3.49999 155.227L2.49999 155.227ZM2.49999 167.167L2.49999 173.136L3.49999 173.136L3.49999 167.167L2.49999 167.167ZM2.49999 179.106L2.49999 185.076L3.49999 185.076L3.49999 179.106L2.49999 179.106ZM2.49999 191.045L2.49999 197.015L3.49999 197.015L3.49999 191.045L2.49999 191.045ZM2.49999 202.985L2.49999 208.955L3.49999 208.955L3.49999 202.985L2.49999 202.985ZM2.49999 214.924L2.49999 220.894L3.49999 220.894L3.49999 214.924L2.49999 214.924ZM2.49999 226.864L2.49999 232.833L3.49999 232.833L3.49999 226.864L2.49999 226.864ZM2.49999 238.803L2.49999 244.773L3.49999 244.773L3.49999 238.803L2.49999 238.803ZM2.49999 250.742L2.49999 256.712L3.49999 256.712L3.49999 250.742L2.49999 250.742ZM2.49999 262.682L2.49999 268.651L3.49999 268.651L3.49999 262.682L2.49999 262.682ZM2.49999 274.621L2.49999 280.591L3.49999 280.591L3.49999 274.621L2.49999 274.621ZM2.49999 286.561L2.49999 292.53L3.49999 292.53L3.49999 286.561L2.49999 286.561ZM2.49999 298.5L2.49999 304.47L3.49999 304.47L3.49999 298.5L2.49999 298.5ZM2.49999 310.439L2.49999 316.409L3.49999 316.409L3.49999 310.439L2.49999 310.439ZM2.49999 322.379L2.49999 328.348L3.49999 328.348L3.49999 322.379L2.49999 322.379ZM2.49999 334.318L2.49999 340.288L3.49999 340.288L3.49999 334.318L2.49999 334.318ZM2.49998 346.258L2.49998 352.227L3.49998 352.227L3.49998 346.258L2.49998 346.258ZM2.49998 358.197L2.49998 364.167L3.49998 364.167L3.49998 358.197L2.49998 358.197ZM2.49998 370.136L2.49998 376.106L3.49998 376.106L3.49998 370.136L2.49998 370.136ZM2.49998 382.076L2.49998 388.045L3.49998 388.045L3.49998 382.076L2.49998 382.076ZM2.49998 394.015L2.49998 399.985L3.49998 399.985L3.49998 394.015L2.49998 394.015ZM2.49998 405.954L2.49998 411.924L3.49998 411.924L3.49998 405.954L2.49998 405.954ZM2.49998 417.894L2.49998 423.864L3.49998 423.864L3.49998 417.894L2.49998 417.894ZM2.49998 429.833L2.49998 435.803L3.49998 435.803L3.49998 429.833L2.49998 429.833ZM2.49998 441.773L2.49998 447.742L3.49998 447.742L3.49998 441.773L2.49998 441.773ZM2.49998 453.712L2.49998 459.682L3.49998 459.682L3.49998 453.712L2.49998 453.712ZM2.49998 465.651L2.49998 471.621L3.49998 471.621L3.49998 465.651L2.49998 465.651ZM2.49998 477.591L2.49998 483.561L3.49998 483.561L3.49998 477.591L2.49998 477.591ZM2.49998 489.53L2.49998 495.5L3.49998 495.5L3.49998 489.53L2.49998 489.53ZM2.49998 501.47L2.49998 507.439L3.49998 507.439L3.49998 501.47L2.49998 501.47ZM2.49998 513.409L2.49998 519.379L3.49998 519.379L3.49998 513.409L2.49998 513.409ZM2.49998 525.348L2.49998 531.318L3.49998 531.318L3.49998 525.348L2.49998 525.348ZM2.49998 537.288L2.49998 543.258L3.49998 543.258L3.49998 537.288L2.49998 537.288ZM2.49998 549.227L2.49998 555.197L3.49998 555.197L3.49998 549.227L2.49998 549.227ZM2.49998 561.167L2.49998 567.137L3.49998 567.137L3.49998 561.167L2.49998 561.167ZM2.49998 573.106L2.49997 579.076L3.49997 579.076L3.49998 573.106L2.49998 573.106ZM2.49997 585.046L2.49997 591.015L3.49997 591.015L3.49997 585.046L2.49997 585.046ZM2.49997 596.985L2.49997 602.955L3.49997 602.955L3.49997 596.985L2.49997 596.985ZM2.49997 608.925L2.49997 614.894L3.49997 614.894L3.49997 608.925L2.49997 608.925ZM2.49997 620.864L2.49997 626.834L3.49997 626.834L3.49997 620.864L2.49997 620.864ZM2.49997 632.804L2.49997 638.773L3.49997 638.773L3.49997 632.804L2.49997 632.804ZM2.49997 644.743L2.49997 650.713L3.49997 650.713L3.49997 644.743L2.49997 644.743ZM2.49997 656.682L2.49997 662.652L3.49997 662.652L3.49997 656.682L2.49997 656.682ZM2.49997 668.622L2.49997 674.592L3.49997 674.592L3.49997 668.622L2.49997 668.622ZM2.49997 680.561L2.49997 686.531L3.49997 686.531L3.49997 680.561L2.49997 680.561ZM2.49997 692.501L2.49997 698.471L3.49997 698.471L3.49997 692.501L2.49997 692.501ZM2.49997 704.44L2.49997 710.41L3.49997 710.41L3.49997 704.44L2.49997 704.44ZM2.49997 716.38L2.49997 722.349L3.49997 722.349L3.49997 716.38L2.49997 716.38ZM2.49997 728.319L2.49997 734.289L3.49997 734.289L3.49997 728.319L2.49997 728.319ZM2.49997 740.259L2.49997 746.228L3.49997 746.228L3.49997 740.259L2.49997 740.259ZM2.49997 752.198L2.49997 758.168L3.49997 758.168L3.49997 752.198L2.49997 752.198ZM2.49997 764.138L2.49997 770.107L3.49997 770.107L3.49997 764.138L2.49997 764.138ZM2.49997 776.077L2.49997 782.047L3.49997 782.047L3.49997 776.077L2.49997 776.077ZM2.49997 788.016L2.49997 791L3.49997 791L3.49997 788.016L2.49997 788.016Z" fill="black"/>
</svg>
