<svg width="22" height="1734" viewBox="0 0 22 1734" fill="none" xmlns="http://www.w3.org/2000/svg">
<path d="M10.9999 1712.33C5.10889 1712.33 0.333259 1717.11 0.333258 1723C0.333258 1728.89 5.10889 1733.67 10.9999 1733.67C16.891 1733.67 21.6666 1728.89 21.6666 1723C21.6666 1717.11 16.891 1712.33 10.9999 1712.33ZM9 10L9 12.9948L13 12.9948L13 10L9 10ZM9 18.9843L9 24.9738L13 24.9738L13 18.9843L9 18.9843ZM9 30.9633L9 36.9528L13 36.9528L13 30.9633L9 30.9633ZM9 42.9423L9 48.9318L13 48.9318L13 42.9423L9 42.9423ZM9 54.9213L9 60.9108L13 60.9108L13 54.9213L9 54.9213ZM9 66.9003L9 72.8899L13 72.8899L13 66.9003L9 66.9003ZM9 78.8794L9 84.8689L13 84.8689L13 78.8794L9 78.8794ZM9 90.8584L9 96.8479L13 96.8479L13 90.8584L9 90.8584ZM9 102.837L9 108.827L13 108.827L13 102.837L9 102.837ZM9 114.816L9 120.806L13 120.806L13 114.816L9 114.816ZM8.99999 126.795L8.99999 132.785L13 132.785L13 126.795L8.99999 126.795ZM8.99999 138.774L8.99999 144.764L13 144.764L13 138.774L8.99999 138.774ZM8.99999 150.753L8.99999 156.743L13 156.743L13 150.753L8.99999 150.753ZM8.99999 162.733L8.99999 168.722L13 168.722L13 162.733L8.99999 162.733ZM8.99999 174.712L8.99999 180.701L13 180.701L13 174.712L8.99999 174.712ZM8.99999 186.691L8.99999 192.68L13 192.68L13 186.691L8.99999 186.691ZM8.99999 198.67L8.99999 204.659L13 204.659L13 198.67L8.99999 198.67ZM8.99999 210.649L8.99999 216.638L13 216.638L13 210.649L8.99999 210.649ZM8.99999 222.628L8.99999 228.617L13 228.617L13 222.628L8.99999 222.628ZM8.99999 234.607L8.99999 240.596L13 240.596L13 234.607L8.99999 234.607ZM8.99999 246.586L8.99999 252.575L13 252.575L13 246.586L8.99999 246.586ZM8.99999 258.565L8.99999 264.554L13 264.554L13 258.565L8.99999 258.565ZM8.99999 270.544L8.99999 276.533L13 276.533L13 270.544L8.99999 270.544ZM8.99999 282.523L8.99999 288.512L13 288.512L13 282.523L8.99999 282.523ZM8.99999 294.502L8.99999 300.491L13 300.491L13 294.502L8.99999 294.502ZM8.99999 306.481L8.99999 312.47L13 312.47L13 306.481L8.99999 306.481ZM8.99999 318.46L8.99999 324.449L13 324.449L13 318.46L8.99999 318.46ZM8.99999 330.439L8.99999 336.428L13 336.428L13 330.439L8.99999 330.439ZM8.99999 342.418L8.99999 348.407L13 348.407L13 342.418L8.99999 342.418ZM8.99998 354.397L8.99998 360.386L13 360.386L13 354.397L8.99998 354.397ZM8.99998 366.376L8.99998 372.365L13 372.365L13 366.376L8.99998 366.376ZM8.99998 378.355L8.99998 384.344L13 384.344L13 378.355L8.99998 378.355ZM8.99998 390.334L8.99998 396.323L13 396.323L13 390.334L8.99998 390.334ZM8.99998 402.313L8.99998 408.302L13 408.302L13 402.313L8.99998 402.313ZM8.99998 414.292L8.99998 420.281L13 420.281L13 414.292L8.99998 414.292ZM8.99998 426.271L8.99998 432.26L13 432.26L13 426.271L8.99998 426.271ZM8.99998 438.25L8.99998 444.239L13 444.239L13 438.25L8.99998 438.25ZM8.99998 450.229L8.99998 456.218L13 456.218L13 450.229L8.99998 450.229ZM8.99998 462.208L8.99998 468.197L13 468.197L13 462.208L8.99998 462.208ZM8.99998 474.187L8.99998 480.176L13 480.176L13 474.187L8.99998 474.187ZM8.99998 486.166L8.99998 492.155L13 492.155L13 486.166L8.99998 486.166ZM8.99998 498.145L8.99998 504.134L13 504.134L13 498.145L8.99998 498.145ZM8.99998 510.124L8.99998 516.113L13 516.113L13 510.124L8.99998 510.124ZM8.99998 522.103L8.99998 528.092L13 528.092L13 522.103L8.99998 522.103ZM8.99998 534.082L8.99998 540.071L13 540.071L13 534.082L8.99998 534.082ZM8.99998 546.061L8.99998 552.05L13 552.05L13 546.061L8.99998 546.061ZM8.99998 558.04L8.99998 564.029L13 564.029L13 558.04L8.99998 558.04ZM8.99998 570.019L8.99998 576.008L13 576.008L13 570.019L8.99998 570.019ZM8.99997 581.998L8.99997 587.987L13 587.987L13 581.998L8.99997 581.998ZM8.99997 593.977L8.99997 599.966L13 599.966L13 593.977L8.99997 593.977ZM8.99997 605.956L8.99997 611.945L13 611.945L13 605.956L8.99997 605.956ZM8.99997 617.935L8.99997 623.924L13 623.924L13 617.935L8.99997 617.935ZM8.99997 629.914L8.99997 635.903L13 635.903L13 629.914L8.99997 629.914ZM8.99997 641.893L8.99997 647.882L13 647.882L13 641.893L8.99997 641.893ZM8.99997 653.872L8.99997 659.861L13 659.861L13 653.872L8.99997 653.872ZM8.99997 665.851L8.99997 671.84L13 671.84L13 665.851L8.99997 665.851ZM8.99997 677.83L8.99997 683.819L13 683.819L13 677.83L8.99997 677.83ZM8.99997 689.809L8.99997 695.798L13 695.798L13 689.809L8.99997 689.809ZM8.99997 701.788L8.99997 707.777L13 707.777L13 701.788L8.99997 701.788ZM8.99997 713.767L8.99997 719.756L13 719.756L13 713.767L8.99997 713.767ZM8.99997 725.746L8.99997 731.735L13 731.735L13 725.746L8.99997 725.746ZM8.99997 737.725L8.99997 743.714L13 743.714L13 737.725L8.99997 737.725ZM8.99997 749.704L8.99997 755.693L13 755.693L13 749.704L8.99997 749.704ZM8.99997 761.683L8.99997 767.672L13 767.672L13 761.683L8.99997 761.683ZM8.99997 773.662L8.99997 779.651L13 779.651L13 773.662L8.99997 773.662ZM8.99997 785.641L8.99997 791.63L13 791.63L13 785.641L8.99997 785.641ZM8.99997 797.62L8.99997 803.61L13 803.61L13 797.62L8.99997 797.62ZM8.99997 809.599L8.99996 815.589L13 815.589L13 809.599L8.99997 809.599ZM8.99996 821.578L8.99996 827.568L13 827.568L13 821.578L8.99996 821.578ZM8.99996 833.557L8.99996 839.547L13 839.547L13 833.557L8.99996 833.557ZM8.99996 845.536L8.99996 851.526L13 851.526L13 845.536L8.99996 845.536ZM8.99996 857.515L8.99996 863.505L13 863.505L13 857.515L8.99996 857.515ZM8.99996 869.494L8.99996 875.484L13 875.484L13 869.494L8.99996 869.494ZM8.99996 881.473L8.99996 887.463L13 887.463L13 881.473L8.99996 881.473ZM8.99996 893.452L8.99996 899.442L13 899.442L13 893.452L8.99996 893.452ZM8.99996 905.431L8.99996 911.421L13 911.421L13 905.431L8.99996 905.431ZM8.99996 917.41L8.99996 923.4L13 923.4L13 917.41L8.99996 917.41ZM8.99996 929.389L8.99996 935.379L13 935.379L13 929.389L8.99996 929.389ZM8.99996 941.368L8.99996 947.358L13 947.358L13 941.368L8.99996 941.368ZM8.99996 953.347L8.99996 959.337L13 959.337L13 953.347L8.99996 953.347ZM8.99996 965.326L8.99996 971.316L13 971.316L13 965.326L8.99996 965.326ZM8.99996 977.305L8.99996 983.295L13 983.295L13 977.305L8.99996 977.305ZM8.99996 989.284L8.99996 995.274L13 995.274L13 989.284L8.99996 989.284ZM8.99996 1001.26L8.99996 1007.25L13 1007.25L13 1001.26L8.99996 1001.26ZM8.99996 1013.24L8.99996 1019.23L13 1019.23L13 1013.24L8.99996 1013.24ZM8.99996 1025.22L8.99996 1031.21L13 1031.21L13 1025.22L8.99996 1025.22ZM8.99996 1037.2L8.99995 1043.19L13 1043.19L13 1037.2L8.99996 1037.2ZM8.99995 1049.18L8.99995 1055.17L13 1055.17L13 1049.18L8.99995 1049.18ZM8.99995 1061.16L8.99995 1067.15L13 1067.15L13 1061.16L8.99995 1061.16ZM8.99995 1073.14L8.99995 1079.13L13 1079.13L13 1073.14L8.99995 1073.14ZM8.99995 1085.12L8.99995 1091.11L13 1091.11L13 1085.12L8.99995 1085.12ZM8.99995 1097.1L8.99995 1103.08L13 1103.08L13 1097.1L8.99995 1097.1ZM8.99995 1109.07L8.99995 1115.06L13 1115.06L13 1109.07L8.99995 1109.07ZM8.99995 1121.05L8.99995 1127.04L13 1127.04L13 1121.05L8.99995 1121.05ZM8.99995 1133.03L8.99995 1139.02L13 1139.02L13 1133.03L8.99995 1133.03ZM8.99995 1145.01L8.99995 1151L13 1151L13 1145.01L8.99995 1145.01ZM8.99995 1156.99L8.99995 1162.98L12.9999 1162.98L12.9999 1156.99L8.99995 1156.99ZM8.99995 1168.97L8.99995 1174.96L12.9999 1174.96L12.9999 1168.97L8.99995 1168.97ZM8.99995 1180.95L8.99995 1186.94L12.9999 1186.94L12.9999 1180.95L8.99995 1180.95ZM8.99995 1192.93L8.99995 1198.92L12.9999 1198.92L12.9999 1192.93L8.99995 1192.93ZM8.99995 1204.91L8.99995 1210.9L12.9999 1210.9L12.9999 1204.91L8.99995 1204.91ZM8.99995 1216.89L8.99995 1222.87L12.9999 1222.87L12.9999 1216.89L8.99995 1216.89ZM8.99995 1228.86L8.99995 1234.85L12.9999 1234.85L12.9999 1228.86L8.99995 1228.86ZM8.99995 1240.84L8.99995 1246.83L12.9999 1246.83L12.9999 1240.84L8.99995 1240.84ZM8.99995 1252.82L8.99995 1258.81L12.9999 1258.81L12.9999 1252.82L8.99995 1252.82ZM8.99995 1264.8L8.99994 1270.79L12.9999 1270.79L12.9999 1264.8L8.99995 1264.8ZM8.99994 1276.78L8.99994 1282.77L12.9999 1282.77L12.9999 1276.78L8.99994 1276.78ZM8.99994 1288.76L8.99994 1294.75L12.9999 1294.75L12.9999 1288.76L8.99994 1288.76ZM8.99994 1300.74L8.99994 1306.73L12.9999 1306.73L12.9999 1300.74L8.99994 1300.74ZM8.99994 1312.72L8.99994 1318.71L12.9999 1318.71L12.9999 1312.72L8.99994 1312.72ZM8.99994 1324.7L8.99994 1330.69L12.9999 1330.69L12.9999 1324.7L8.99994 1324.7ZM8.99994 1336.68L8.99994 1342.66L12.9999 1342.66L12.9999 1336.68L8.99994 1336.68ZM8.99994 1348.65L8.99994 1354.64L12.9999 1354.64L12.9999 1348.65L8.99994 1348.65ZM8.99994 1360.63L8.99994 1366.62L12.9999 1366.62L12.9999 1360.63L8.99994 1360.63ZM8.99994 1372.61L8.99994 1378.6L12.9999 1378.6L12.9999 1372.61L8.99994 1372.61ZM8.99994 1384.59L8.99994 1390.58L12.9999 1390.58L12.9999 1384.59L8.99994 1384.59ZM8.99994 1396.57L8.99994 1402.56L12.9999 1402.56L12.9999 1396.57L8.99994 1396.57ZM8.99994 1408.55L8.99994 1414.54L12.9999 1414.54L12.9999 1408.55L8.99994 1408.55ZM8.99994 1420.53L8.99994 1426.52L12.9999 1426.52L12.9999 1420.53L8.99994 1420.53ZM8.99994 1432.51L8.99994 1438.5L12.9999 1438.5L12.9999 1432.51L8.99994 1432.51ZM8.99994 1444.49L8.99994 1450.48L12.9999 1450.48L12.9999 1444.49L8.99994 1444.49ZM8.99994 1456.47L8.99994 1462.45L12.9999 1462.45L12.9999 1456.47L8.99994 1456.47ZM8.99994 1468.44L8.99994 1474.43L12.9999 1474.43L12.9999 1468.44L8.99994 1468.44ZM8.99994 1480.42L8.99994 1486.41L12.9999 1486.41L12.9999 1480.42L8.99994 1480.42ZM8.99994 1492.4L8.99993 1498.39L12.9999 1498.39L12.9999 1492.4L8.99994 1492.4ZM8.99993 1504.38L8.99993 1510.37L12.9999 1510.37L12.9999 1504.38L8.99993 1504.38ZM8.99993 1516.36L8.99993 1522.35L12.9999 1522.35L12.9999 1516.36L8.99993 1516.36ZM8.99993 1528.34L8.99993 1534.33L12.9999 1534.33L12.9999 1528.34L8.99993 1528.34ZM8.99993 1540.32L8.99993 1546.31L12.9999 1546.31L12.9999 1540.32L8.99993 1540.32ZM8.99993 1552.3L8.99993 1558.29L12.9999 1558.29L12.9999 1552.3L8.99993 1552.3ZM8.99993 1564.28L8.99993 1570.27L12.9999 1570.27L12.9999 1564.28L8.99993 1564.28ZM8.99993 1576.26L8.99993 1582.24L12.9999 1582.24L12.9999 1576.26L8.99993 1576.26ZM8.99993 1588.23L8.99993 1594.22L12.9999 1594.22L12.9999 1588.23L8.99993 1588.23ZM8.99993 1600.21L8.99993 1606.2L12.9999 1606.2L12.9999 1600.21L8.99993 1600.21ZM8.99993 1612.19L8.99993 1618.18L12.9999 1618.18L12.9999 1612.19L8.99993 1612.19ZM8.99993 1624.17L8.99993 1630.16L12.9999 1630.16L12.9999 1624.17L8.99993 1624.17ZM8.99993 1636.15L8.99993 1642.14L12.9999 1642.14L12.9999 1636.15L8.99993 1636.15ZM8.99993 1648.13L8.99993 1654.12L12.9999 1654.12L12.9999 1648.13L8.99993 1648.13ZM8.99993 1660.11L8.99993 1666.1L12.9999 1666.1L12.9999 1660.11L8.99993 1660.11ZM8.99993 1672.09L8.99993 1678.08L12.9999 1678.08L12.9999 1672.09L8.99993 1672.09ZM8.99993 1684.07L8.99993 1690.06L12.9999 1690.06L12.9999 1684.07L8.99993 1684.07ZM8.99993 1696.05L8.99993 1702.03L12.9999 1702.03L12.9999 1696.05L8.99993 1696.05ZM8.99993 1708.02L8.99993 1714.01L12.9999 1714.01L12.9999 1708.02L8.99993 1708.02ZM8.99993 1720L8.99993 1723L12.9999 1723L12.9999 1720L8.99993 1720Z" fill="black"/>
<circle cx="11.5" cy="10.5" r="10.5" fill="black"/>
<circle cx="11.5" cy="1723.5" r="10.5" fill="black"/>
</svg>
