<svg width="503" height="100" viewBox="0 0 503 100" fill="none" xmlns="http://www.w3.org/2000/svg">
<rect x="1.75" y="29.75" width="499.5" height="44.5" fill="#00F89E" stroke="black" stroke-width="3.5"/>
<path d="M20.1582 58.3379C20.1934 57.9629 20.3691 56.8379 20.6855 54.9629L21.0898 52.3438L21.4414 50.6211L23.1113 42.1309C23.2051 41.6035 23.3223 41.2871 23.4629 41.1816C23.6035 41.0645 23.9375 41.0059 24.4648 41.0059H24.9043C25.4551 41.0059 25.8008 41.0703 25.9414 41.1992C26.0938 41.3281 26.1934 41.668 26.2402 42.2188L28.209 63.6465C28.2324 63.8926 28.2441 64.0801 28.2441 64.209C28.2441 64.5254 28.1562 64.7363 27.9805 64.8418C27.8164 64.9473 27.4824 65 26.9785 65H26.4688C25.9062 65 25.5547 64.9355 25.4141 64.8066C25.2734 64.666 25.1855 64.3203 25.1504 63.7695L24.6934 56.8613L24.4824 51.8164C24.4238 49.8359 24.3828 48.7227 24.3594 48.4766C24.1484 49.918 23.8555 51.6582 23.4805 53.6973L23.3223 54.541L21.5117 63.875C21.4062 64.4141 21.2891 64.7363 21.1602 64.8418C21.043 64.9473 20.709 65 20.1582 65C19.666 65 19.3613 64.9473 19.2441 64.8418C19.127 64.7363 19.0098 64.4199 18.8926 63.8926L17.2227 55.9473C16.7188 53.5566 16.3027 51.0664 15.9746 48.4766L15.1133 63.7695C15.0898 64.3203 15.002 64.666 14.8496 64.8066C14.709 64.9355 14.3633 65 13.8125 65H13.3555C12.8516 65 12.5117 64.9473 12.3359 64.8418C12.1719 64.7246 12.0898 64.5078 12.0898 64.1914C12.0898 64.0742 12.1016 63.8984 12.125 63.6641L13.8828 42.2188C13.9297 41.668 14.0234 41.3281 14.1641 41.1992C14.3047 41.0703 14.6504 41.0059 15.2012 41.0059H15.6055C16.1445 41.0059 16.4785 41.0586 16.6074 41.1641C16.748 41.2695 16.8711 41.5859 16.9766 42.1133L18.8574 50.7969C19.3848 53.1992 19.8184 55.7129 20.1582 58.3379ZM31.2247 41.0059H31.8927C32.4434 41.0059 32.795 41.082 32.9473 41.2344C33.0997 41.3867 33.1759 41.7383 33.1759 42.2891V63.7168C33.1759 64.2676 33.0997 64.6191 32.9473 64.7715C32.795 64.9238 32.4434 65 31.8927 65H31.2247C30.6739 65 30.3223 64.9238 30.17 64.7715C30.0177 64.6191 29.9415 64.2676 29.9415 63.7168V42.2891C29.9415 41.7383 30.0177 41.3867 30.17 41.2344C30.3223 41.082 30.6739 41.0059 31.2247 41.0059ZM44.5236 59.2344C44.0197 55.625 43.7677 52.5312 43.7677 49.9531V42.2891C43.7677 41.7383 43.8439 41.3867 43.9963 41.2344C44.1369 41.082 44.4884 41.0059 45.0509 41.0059H45.7189C46.2697 41.0059 46.6213 41.082 46.7736 41.2344C46.9259 41.3867 47.0021 41.7383 47.0021 42.2891V63.7168C47.0021 64.2676 46.9259 64.6191 46.7736 64.7715C46.6213 64.9238 46.2697 65 45.7189 65H45.0509C44.5236 65 44.1955 64.959 44.0666 64.877C43.9494 64.7832 43.8088 64.4902 43.6447 63.998L40.3576 54.207C39.8654 52.7305 39.5607 51.7871 39.4435 51.377C39.338 50.9551 38.9689 49.3438 38.3361 46.543C38.4181 47.1992 38.5119 48.4062 38.6173 50.1641C38.758 52.2617 38.8341 53.7207 38.8459 54.541L38.9865 63.7168C38.9982 64.2793 38.9279 64.6367 38.7755 64.7891C38.6349 64.9297 38.2834 65 37.7209 65H37.1056C36.5548 65 36.2033 64.9238 36.0509 64.7715C35.8986 64.6191 35.8224 64.2676 35.8224 63.7168V42.2891C35.8224 41.7266 35.8986 41.375 36.0509 41.2344C36.2033 41.082 36.5548 41.0059 37.1056 41.0059H37.7736C38.2892 41.0059 38.6115 41.0527 38.7404 41.1465C38.8693 41.2402 39.0158 41.5273 39.1798 42.0078L42.0627 50.5859C42.9884 53.3398 43.8088 56.2227 44.5236 59.2344ZM54.6409 43.8359V63.7168C54.6409 64.2676 54.5647 64.6191 54.4123 64.7715C54.2717 64.9238 53.9202 65 53.3577 65H52.76C52.2092 65 51.8577 64.9238 51.7053 64.7715C51.553 64.6191 51.4768 64.2676 51.4768 63.7168V43.8359H49.0159C48.4651 43.8359 48.1135 43.7598 47.9612 43.6074C47.8088 43.4551 47.7327 43.1035 47.7327 42.5527V42.2891C47.7327 41.7383 47.8088 41.3867 47.9612 41.2344C48.1135 41.082 48.4651 41.0059 49.0159 41.0059H56.9787C57.5295 41.0059 57.8811 41.082 58.0334 41.2344C58.1858 41.3867 58.262 41.7383 58.262 42.2891V42.5527C58.262 43.1035 58.1858 43.4551 58.0334 43.6074C57.8811 43.7598 57.5295 43.8359 56.9787 43.8359H54.6409ZM65.8578 41.0059H68.5473C69.9301 41.0059 71.0258 41.1699 71.8344 41.498C72.643 41.8145 73.3637 42.377 73.9965 43.1855C74.5238 43.877 74.9281 44.6152 75.2094 45.4004C75.5023 46.1855 75.7309 47.1875 75.8949 48.4062C76.0707 49.7891 76.1586 51.4297 76.1586 53.3281C76.1586 55.8594 75.9711 57.8984 75.5961 59.4453C75.2328 60.9805 74.6469 62.1934 73.8383 63.084C73.3578 63.5996 72.8246 63.9922 72.2387 64.2617C71.6645 64.5195 70.9086 64.7129 69.9711 64.8418C69.1391 64.9473 68.2133 65 67.1937 65H65.8578C65.307 65 64.9555 64.9238 64.8031 64.7715C64.6508 64.6191 64.5746 64.2676 64.5746 63.7168V42.2891C64.5746 41.7383 64.6508 41.3867 64.8031 41.2344C64.9555 41.082 65.307 41.0059 65.8578 41.0059ZM67.809 62.1875C68.9926 62.1875 69.9008 61.9941 70.5336 61.6074C71.0375 61.3145 71.4301 60.9395 71.7113 60.4824C71.9926 60.0137 72.2211 59.3809 72.3969 58.584C72.6547 57.3887 72.7836 55.6543 72.7836 53.3809C72.7836 49.7129 72.4555 47.1875 71.7992 45.8047C71.143 44.4219 69.9418 43.7305 68.1957 43.7305C68.1254 43.7305 67.9965 43.7305 67.809 43.7305V62.1875ZM85.0805 60.3242H80.3169L79.6313 63.875C79.5259 64.4023 79.4028 64.7246 79.2622 64.8418C79.1333 64.9473 78.7993 65 78.2602 65H77.768C77.2759 65 76.936 64.9473 76.7485 64.8418C76.5727 64.7363 76.4848 64.543 76.4848 64.2617C76.4848 64.1562 76.5259 63.9277 76.6079 63.5762L81.2661 42.1133C81.3833 41.5859 81.5063 41.2695 81.6352 41.1641C81.7759 41.0586 82.1098 41.0059 82.6372 41.0059H82.9009C83.4399 41.0059 83.7739 41.0586 83.9028 41.1641C84.0434 41.2695 84.1665 41.5859 84.2719 42.1133L88.8774 63.5762C88.9477 63.9277 88.9829 64.1621 88.9829 64.2793C88.9829 64.5488 88.8891 64.7363 88.7016 64.8418C88.5259 64.9473 88.1977 65 87.7173 65H87.1196C86.5923 65 86.2583 64.9473 86.1177 64.8418C85.977 64.7246 85.8598 64.4023 85.7661 63.875L85.0805 60.3242ZM84.6235 57.8281L83.9028 53.9961C83.4223 51.3828 83.0356 48.6055 82.7427 45.6641C82.4497 48.4766 81.9927 51.5059 81.3716 54.752L80.7739 57.8281H84.6235ZM93.4752 52.0977C93.6509 50.8438 93.9673 49.2383 94.4244 47.2812L94.6177 46.4375L95.6724 42.0957C95.8013 41.5801 95.9302 41.2695 96.0591 41.1641C96.1998 41.0586 96.5338 41.0059 97.0611 41.0059H97.7642C98.2095 41.0059 98.4966 41.0352 98.6255 41.0938C98.9068 41.1992 99.0474 41.4102 99.0474 41.7266C99.0474 41.8438 98.9888 42.0957 98.8716 42.4824L95.1451 54.6816V63.7168C95.1451 64.2676 95.0689 64.6191 94.9166 64.7715C94.7642 64.9238 94.4127 65 93.8619 65H93.1939C92.6431 65 92.2916 64.9238 92.1392 64.7715C91.9869 64.6191 91.9107 64.2676 91.9107 63.7168V54.6816L87.4459 42.5176C87.3052 42.1309 87.2349 41.8613 87.2349 41.709C87.2349 41.4512 87.3287 41.2695 87.5162 41.1641C87.7037 41.0586 88.0318 41.0059 88.5005 41.0059H89.2564C89.772 41.0059 90.0943 41.0527 90.2232 41.1465C90.3521 41.2402 90.4927 41.5391 90.6451 42.043L91.9107 46.2441C92.0045 46.5605 92.1158 46.9297 92.2447 47.3516C92.8423 49.2266 93.2525 50.8086 93.4752 52.0977ZM106.568 51.86C106.568 50.78 106.736 49.916 107.072 49.268C107.432 48.596 107.912 48.116 108.512 47.828C109.136 47.54 109.82 47.396 110.564 47.396C111.308 47.396 111.98 47.54 112.58 47.828C113.18 48.116 113.66 48.596 114.02 49.268C114.38 49.916 114.56 50.78 114.56 51.86C114.56 52.916 114.38 53.78 114.02 54.452C113.66 55.1 113.18 55.58 112.58 55.892C111.98 56.18 111.308 56.324 110.564 56.324C109.82 56.324 109.136 56.18 108.512 55.892C107.912 55.58 107.432 55.1 107.072 54.452C106.736 53.78 106.568 52.916 106.568 51.86ZM127.37 41.0059H128.038C128.589 41.0059 128.94 41.082 129.093 41.2344C129.245 41.3867 129.321 41.7383 129.321 42.2891V59.4277C129.321 61.291 129.052 62.6387 128.513 63.4707C127.704 64.7012 126.391 65.3164 124.575 65.3164C123.356 65.3164 122.518 65.1289 122.061 64.7539C121.944 64.6602 121.874 64.5605 121.85 64.4551C121.815 64.3379 121.798 64.0742 121.798 63.6641V63.0488C121.798 62.2988 122.05 61.9238 122.554 61.9238C122.683 61.9238 122.893 62 123.186 62.1523C123.35 62.2344 123.591 62.2754 123.907 62.2754C124.903 62.2754 125.559 61.8477 125.876 60.9922C126.016 60.6055 126.087 59.709 126.087 58.3027V42.2891C126.087 41.7383 126.163 41.3867 126.315 41.2344C126.468 41.082 126.819 41.0059 127.37 41.0059ZM133.216 41.0059H133.813C134.364 41.0059 134.716 41.082 134.868 41.2344C135.02 41.3867 135.097 41.7383 135.097 42.2891V57.9512C135.097 59.6387 135.208 60.7109 135.431 61.168C135.806 61.9062 136.491 62.2754 137.487 62.2754C138.601 62.2754 139.304 61.8359 139.597 60.957C139.737 60.5469 139.808 59.7031 139.808 58.4258V42.2891C139.808 41.7383 139.884 41.3867 140.036 41.2344C140.188 41.082 140.54 41.0059 141.091 41.0059H141.688C142.239 41.0059 142.591 41.082 142.743 41.2344C142.895 41.3867 142.972 41.7383 142.972 42.2891V58.4258C142.972 59.8906 142.884 61.0156 142.708 61.8008C142.532 62.5742 142.216 63.2129 141.759 63.7168C140.833 64.7832 139.38 65.3164 137.399 65.3164C135.009 65.3164 133.403 64.4902 132.583 62.8379C132.149 61.9473 131.933 60.3184 131.933 57.9512V42.2891C131.933 41.7383 132.009 41.3867 132.161 41.2344C132.313 41.082 132.665 41.0059 133.216 41.0059ZM154.284 59.2344C153.78 55.625 153.528 52.5312 153.528 49.9531V42.2891C153.528 41.7383 153.605 41.3867 153.757 41.2344C153.898 41.082 154.249 41.0059 154.812 41.0059H155.48C156.03 41.0059 156.382 41.082 156.534 41.2344C156.687 41.3867 156.763 41.7383 156.763 42.2891V63.7168C156.763 64.2676 156.687 64.6191 156.534 64.7715C156.382 64.9238 156.03 65 155.48 65H154.812C154.284 65 153.956 64.959 153.827 64.877C153.71 64.7832 153.569 64.4902 153.405 63.998L150.118 54.207C149.626 52.7305 149.321 51.7871 149.204 51.377C149.099 50.9551 148.73 49.3438 148.097 46.543C148.179 47.1992 148.273 48.4062 148.378 50.1641C148.519 52.2617 148.595 53.7207 148.606 54.541L148.747 63.7168C148.759 64.2793 148.689 64.6367 148.536 64.7891C148.396 64.9297 148.044 65 147.481 65H146.866C146.315 65 145.964 64.9238 145.812 64.7715C145.659 64.6191 145.583 64.2676 145.583 63.7168V42.2891C145.583 41.7266 145.659 41.375 145.812 41.2344C145.964 41.082 146.315 41.0059 146.866 41.0059H147.534C148.05 41.0059 148.372 41.0527 148.501 41.1465C148.63 41.2402 148.776 41.5273 148.94 42.0078L151.823 50.5859C152.749 53.3398 153.569 56.2227 154.284 59.2344ZM162.644 43.748V51.3418H166.124C166.675 51.3418 167.026 51.418 167.179 51.5703C167.319 51.7227 167.39 52.0742 167.39 52.625V52.8008C167.39 53.3516 167.319 53.7031 167.179 53.8555C167.026 54.0078 166.675 54.084 166.124 54.084H162.644V62.2578H166.722C167.273 62.2578 167.624 62.334 167.776 62.4863C167.929 62.6387 168.005 62.9902 168.005 63.541V63.7168C168.005 64.2676 167.929 64.6191 167.776 64.7715C167.624 64.9238 167.273 65 166.722 65H160.693C160.142 65 159.79 64.9238 159.638 64.7715C159.485 64.6191 159.409 64.2676 159.409 63.7168V42.2891C159.409 41.7383 159.485 41.3867 159.638 41.2344C159.79 41.082 160.142 41.0059 160.693 41.0059H166.722C167.273 41.0059 167.624 41.082 167.776 41.2344C167.929 41.3867 168.005 41.7383 168.005 42.2891V42.4648C168.005 43.0156 167.929 43.3672 167.776 43.5195C167.624 43.6719 167.273 43.748 166.722 43.748H162.644ZM179.116 43.7656H178.027C177.476 43.7656 177.124 43.6895 176.972 43.5371C176.82 43.3848 176.743 43.0332 176.743 42.4824V42.2891C176.743 41.7266 176.82 41.375 176.972 41.2344C177.124 41.082 177.476 41.0059 178.027 41.0059H180.927C181.478 41.0059 181.829 41.082 181.982 41.2344C182.134 41.3867 182.21 41.7383 182.21 42.2891V63.7168C182.21 64.2676 182.134 64.6191 181.982 64.7715C181.829 64.9238 181.478 65 180.927 65H180.4C179.849 65 179.497 64.9238 179.345 64.7715C179.193 64.6191 179.116 64.2676 179.116 63.7168V43.7656ZM195.421 51.9922C196.277 52.2969 196.88 52.7012 197.232 53.2051C197.607 53.7324 197.87 54.3652 198.023 55.1035C198.175 55.8301 198.251 56.8086 198.251 58.0391C198.251 60.4883 197.859 62.2754 197.074 63.4004C196.195 64.6543 194.859 65.2812 193.066 65.2812C191.273 65.2812 189.943 64.6543 189.076 63.4004C188.279 62.2754 187.88 60.4883 187.88 58.0391C187.88 56.8086 187.956 55.8301 188.109 55.1035C188.261 54.3652 188.525 53.7324 188.9 53.2051C189.24 52.7012 189.843 52.2969 190.71 51.9922C189.808 51.5938 189.181 51.0723 188.829 50.4277C188.337 49.502 188.091 48.2305 188.091 46.6133C188.091 44.5625 188.484 43.0684 189.269 42.1309C190.066 41.1934 191.331 40.7246 193.066 40.7246C194.73 40.7246 195.931 41.1289 196.669 41.9375C197.583 42.9336 198.04 44.4922 198.04 46.6133C198.04 48.1602 197.841 49.3379 197.443 50.1465C197.044 50.9551 196.37 51.5703 195.421 51.9922ZM193.066 43.502C191.882 43.502 191.29 44.6211 191.29 46.8594C191.29 49.3438 191.882 50.5859 193.066 50.5859C194.249 50.5859 194.841 49.3555 194.841 46.8945C194.841 44.6328 194.249 43.502 193.066 43.502ZM193.066 53.7324C192.363 53.7324 191.853 54.0898 191.536 54.8047C191.232 55.5078 191.079 56.6621 191.079 58.2676C191.079 59.709 191.238 60.7637 191.554 61.4316C191.87 62.0996 192.374 62.4336 193.066 62.4336C194.39 62.4336 195.052 61.0977 195.052 58.4258C195.052 56.7383 194.9 55.5371 194.595 54.8223C194.29 54.0957 193.781 53.7324 193.066 53.7324ZM207.178 51.86C207.178 50.78 207.346 49.916 207.682 49.268C208.042 48.596 208.522 48.116 209.122 47.828C209.746 47.54 210.43 47.396 211.174 47.396C211.918 47.396 212.59 47.54 213.19 47.828C213.79 48.116 214.27 48.596 214.63 49.268C214.99 49.916 215.17 50.78 215.17 51.86C215.17 52.916 214.99 53.78 214.63 54.452C214.27 55.1 213.79 55.58 213.19 55.892C212.59 56.18 211.918 56.324 211.174 56.324C210.43 56.324 209.746 56.18 209.122 55.892C208.522 55.58 208.042 55.1 207.682 54.452C207.346 53.78 207.178 52.916 207.178 51.86ZM225.59 41.0059H226.257C226.808 41.0059 227.16 41.082 227.312 41.2344C227.465 41.3867 227.541 41.7383 227.541 42.2891V63.7168C227.541 64.2676 227.465 64.6191 227.312 64.7715C227.16 64.9238 226.808 65 226.257 65H225.59C225.039 65 224.687 64.9238 224.535 64.7715C224.382 64.6191 224.306 64.2676 224.306 63.7168V42.2891C224.306 41.7383 224.382 41.3867 224.535 41.2344C224.687 41.082 225.039 41.0059 225.59 41.0059ZM238.888 59.2344C238.385 55.625 238.133 52.5312 238.133 49.9531V42.2891C238.133 41.7383 238.209 41.3867 238.361 41.2344C238.502 41.082 238.853 41.0059 239.416 41.0059H240.084C240.635 41.0059 240.986 41.082 241.138 41.2344C241.291 41.3867 241.367 41.7383 241.367 42.2891V63.7168C241.367 64.2676 241.291 64.6191 241.138 64.7715C240.986 64.9238 240.635 65 240.084 65H239.416C238.888 65 238.56 64.959 238.431 64.877C238.314 64.7832 238.174 64.4902 238.01 63.998L234.722 54.207C234.23 52.7305 233.926 51.7871 233.808 51.377C233.703 50.9551 233.334 49.3438 232.701 46.543C232.783 47.1992 232.877 48.4062 232.982 50.1641C233.123 52.2617 233.199 53.7207 233.211 54.541L233.351 63.7168C233.363 64.2793 233.293 64.6367 233.14 64.7891C233 64.9297 232.648 65 232.086 65H231.47C230.92 65 230.568 64.9238 230.416 64.7715C230.263 64.6191 230.187 64.2676 230.187 63.7168V42.2891C230.187 41.7266 230.263 41.375 230.416 41.2344C230.568 41.082 230.92 41.0059 231.47 41.0059H232.138C232.654 41.0059 232.976 41.0527 233.105 41.1465C233.234 41.2402 233.381 41.5273 233.545 42.0078L236.428 50.5859C237.353 53.3398 238.174 56.2227 238.888 59.2344ZM249.006 43.8359V63.7168C249.006 64.2676 248.93 64.6191 248.777 64.7715C248.637 64.9238 248.285 65 247.723 65H247.125C246.574 65 246.223 64.9238 246.07 64.7715C245.918 64.6191 245.842 64.2676 245.842 63.7168V43.8359H243.381C242.83 43.8359 242.478 43.7598 242.326 43.6074C242.174 43.4551 242.098 43.1035 242.098 42.5527V42.2891C242.098 41.7383 242.174 41.3867 242.326 41.2344C242.478 41.082 242.83 41.0059 243.381 41.0059H251.344C251.894 41.0059 252.246 41.082 252.398 41.2344C252.551 41.3867 252.627 41.7383 252.627 42.2891V42.5527C252.627 43.1035 252.551 43.4551 252.398 43.6074C252.246 43.7598 251.894 43.8359 251.344 43.8359H249.006ZM256.574 43.748V51.3418H260.055C260.605 51.3418 260.957 51.418 261.109 51.5703C261.25 51.7227 261.32 52.0742 261.32 52.625V52.8008C261.32 53.3516 261.25 53.7031 261.109 53.8555C260.957 54.0078 260.605 54.084 260.055 54.084H256.574V62.2578H260.652C261.203 62.2578 261.555 62.334 261.707 62.4863C261.859 62.6387 261.935 62.9902 261.935 63.541V63.7168C261.935 64.2676 261.859 64.6191 261.707 64.7715C261.555 64.9238 261.203 65 260.652 65H254.623C254.072 65 253.721 64.9238 253.568 64.7715C253.416 64.6191 253.34 64.2676 253.34 63.7168V42.2891C253.34 41.7383 253.416 41.3867 253.568 41.2344C253.721 41.082 254.072 41.0059 254.623 41.0059H260.652C261.203 41.0059 261.555 41.082 261.707 41.2344C261.859 41.3867 261.935 41.7383 261.935 42.2891V42.4648C261.935 43.0156 261.859 43.3672 261.707 43.5195C261.555 43.6719 261.203 43.748 260.652 43.748H256.574ZM270.33 53.3281L274.162 63.4883C274.314 63.8867 274.391 64.1562 274.391 64.2969C274.391 64.5547 274.297 64.7363 274.109 64.8418C273.922 64.9473 273.588 65 273.107 65H272.492C271.988 65 271.672 64.959 271.543 64.877C271.414 64.7832 271.262 64.4961 271.086 64.0156L267.061 53.2578V63.7168C267.061 64.2676 266.984 64.6191 266.832 64.7715C266.68 64.9238 266.328 65 265.777 65H265.109C264.559 65 264.207 64.9238 264.055 64.7715C263.902 64.6191 263.826 64.2676 263.826 63.7168V42.2891C263.826 41.7383 263.902 41.3867 264.055 41.2344C264.207 41.082 264.559 41.0059 265.109 41.0059H268.08C269.639 41.0059 270.811 41.3047 271.596 41.9023C272.955 42.9453 273.635 44.7266 273.635 47.2461C273.635 49.3203 273.16 50.9668 272.211 52.1855C271.754 52.7598 271.127 53.1406 270.33 53.3281ZM267.061 51.6406C268.174 51.6289 268.953 51.4414 269.398 51.0781C270.125 50.4688 270.488 49.373 270.488 47.791C270.488 46.127 270.195 44.9727 269.609 44.3281C269.199 43.8828 268.52 43.6602 267.57 43.6602C267.453 43.6602 267.283 43.6602 267.061 43.6602V51.6406ZM284.877 59.2344C284.373 55.625 284.121 52.5312 284.121 49.9531V42.2891C284.121 41.7383 284.197 41.3867 284.35 41.2344C284.49 41.082 284.842 41.0059 285.404 41.0059H286.072C286.623 41.0059 286.975 41.082 287.127 41.2344C287.279 41.3867 287.356 41.7383 287.356 42.2891V63.7168C287.356 64.2676 287.279 64.6191 287.127 64.7715C286.975 64.9238 286.623 65 286.072 65H285.404C284.877 65 284.549 64.959 284.42 64.877C284.303 64.7832 284.162 64.4902 283.998 63.998L280.711 54.207C280.219 52.7305 279.914 51.7871 279.797 51.377C279.691 50.9551 279.322 49.3438 278.69 46.543C278.772 47.1992 278.865 48.4062 278.971 50.1641C279.111 52.2617 279.188 53.7207 279.199 54.541L279.34 63.7168C279.352 64.2793 279.281 64.6367 279.129 64.7891C278.988 64.9297 278.637 65 278.074 65H277.459C276.908 65 276.557 64.9238 276.404 64.7715C276.252 64.6191 276.176 64.2676 276.176 63.7168V42.2891C276.176 41.7266 276.252 41.375 276.404 41.2344C276.557 41.082 276.908 41.0059 277.459 41.0059H278.127C278.643 41.0059 278.965 41.0527 279.094 41.1465C279.223 41.2402 279.369 41.5273 279.533 42.0078L282.416 50.5859C283.342 53.3398 284.162 56.2227 284.877 59.2344ZM297.279 60.3242H292.516L291.83 63.875C291.725 64.4023 291.602 64.7246 291.461 64.8418C291.332 64.9473 290.998 65 290.459 65H289.967C289.475 65 289.135 64.9473 288.947 64.8418C288.772 64.7363 288.684 64.543 288.684 64.2617C288.684 64.1562 288.725 63.9277 288.807 63.5762L293.465 42.1133C293.582 41.5859 293.705 41.2695 293.834 41.1641C293.975 41.0586 294.309 41.0059 294.836 41.0059H295.1C295.639 41.0059 295.973 41.0586 296.102 41.1641C296.242 41.2695 296.365 41.5859 296.471 42.1133L301.076 63.5762C301.147 63.9277 301.182 64.1621 301.182 64.2793C301.182 64.5488 301.088 64.7363 300.901 64.8418C300.725 64.9473 300.397 65 299.916 65H299.319C298.791 65 298.457 64.9473 298.317 64.8418C298.176 64.7246 298.059 64.4023 297.965 63.875L297.279 60.3242ZM296.822 57.8281L296.102 53.9961C295.621 51.3828 295.235 48.6055 294.942 45.6641C294.649 48.4766 294.192 51.5059 293.57 54.752L292.973 57.8281H296.822ZM306.571 43.8359V63.7168C306.571 64.2676 306.494 64.6191 306.342 64.7715C306.201 64.9238 305.85 65 305.287 65H304.69C304.139 65 303.787 64.9238 303.635 64.7715C303.483 64.6191 303.406 64.2676 303.406 63.7168V43.8359H300.946C300.395 43.8359 300.043 43.7598 299.891 43.6074C299.739 43.4551 299.662 43.1035 299.662 42.5527V42.2891C299.662 41.7383 299.739 41.3867 299.891 41.2344C300.043 41.082 300.395 41.0059 300.946 41.0059H308.908C309.459 41.0059 309.811 41.082 309.963 41.2344C310.115 41.3867 310.192 41.7383 310.192 42.2891V42.5527C310.192 43.1035 310.115 43.4551 309.963 43.6074C309.811 43.7598 309.459 43.8359 308.908 43.8359H306.571ZM312.188 41.0059H312.856C313.407 41.0059 313.758 41.082 313.91 41.2344C314.063 41.3867 314.139 41.7383 314.139 42.2891V63.7168C314.139 64.2676 314.063 64.6191 313.91 64.7715C313.758 64.9238 313.407 65 312.856 65H312.188C311.637 65 311.285 64.9238 311.133 64.7715C310.981 64.6191 310.905 64.2676 310.905 63.7168V42.2891C310.905 41.7383 310.981 41.3867 311.133 41.2344C311.285 41.082 311.637 41.0059 312.188 41.0059ZM322.481 40.6895C323.969 40.6895 325.2 41.0996 326.172 41.9199C327.121 42.7168 327.795 44.0117 328.194 45.8047C328.592 47.5859 328.791 50.1816 328.791 53.5918C328.791 55.7246 328.686 57.4883 328.475 58.8828C328.264 60.2773 327.924 61.4668 327.455 62.4512C326.553 64.3613 324.948 65.3164 322.639 65.3164C321.045 65.3164 319.75 64.8418 318.754 63.8926C317.84 63.0371 317.202 61.6602 316.838 59.7617C316.487 57.9688 316.311 55.5254 316.311 52.4316C316.311 50.2168 316.405 48.4414 316.592 47.1055C316.791 45.7578 317.125 44.5977 317.594 43.625C318.532 41.668 320.161 40.6895 322.481 40.6895ZM322.551 43.625C321.473 43.625 320.717 44.2285 320.284 45.4355C319.897 46.5137 319.704 49.0742 319.704 53.1172C319.704 56.6211 319.879 58.9824 320.231 60.2012C320.641 61.6309 321.42 62.3457 322.569 62.3457C323.881 62.3457 324.702 61.4902 325.03 59.7793C325.288 58.3965 325.416 56.4512 325.416 53.9434C325.416 49.7949 325.229 47.041 324.854 45.6816C324.479 44.3105 323.711 43.625 322.551 43.625ZM339.629 59.2344C339.125 55.625 338.874 52.5312 338.874 49.9531V42.2891C338.874 41.7383 338.95 41.3867 339.102 41.2344C339.243 41.082 339.594 41.0059 340.157 41.0059H340.825C341.375 41.0059 341.727 41.082 341.879 41.2344C342.032 41.3867 342.108 41.7383 342.108 42.2891V63.7168C342.108 64.2676 342.032 64.6191 341.879 64.7715C341.727 64.9238 341.375 65 340.825 65H340.157C339.629 65 339.301 64.959 339.172 64.877C339.055 64.7832 338.915 64.4902 338.75 63.998L335.463 54.207C334.971 52.7305 334.666 51.7871 334.549 51.377C334.444 50.9551 334.075 49.3438 333.442 46.543C333.524 47.1992 333.618 48.4062 333.723 50.1641C333.864 52.2617 333.94 53.7207 333.952 54.541L334.092 63.7168C334.104 64.2793 334.034 64.6367 333.881 64.7891C333.741 64.9297 333.389 65 332.827 65H332.211C331.661 65 331.309 64.9238 331.157 64.7715C331.004 64.6191 330.928 64.2676 330.928 63.7168V42.2891C330.928 41.7266 331.004 41.375 331.157 41.2344C331.309 41.082 331.661 41.0059 332.211 41.0059H332.879C333.395 41.0059 333.717 41.0527 333.846 41.1465C333.975 41.2402 334.122 41.5273 334.286 42.0078L337.168 50.5859C338.094 53.3398 338.915 56.2227 339.629 59.2344ZM352.032 60.3242H347.268L346.583 63.875C346.477 64.4023 346.354 64.7246 346.213 64.8418C346.085 64.9473 345.751 65 345.211 65H344.719C344.227 65 343.887 64.9473 343.7 64.8418C343.524 64.7363 343.436 64.543 343.436 64.2617C343.436 64.1562 343.477 63.9277 343.559 63.5762L348.217 42.1133C348.335 41.5859 348.458 41.2695 348.586 41.1641C348.727 41.0586 349.061 41.0059 349.588 41.0059H349.852C350.391 41.0059 350.725 41.0586 350.854 41.1641C350.995 41.2695 351.118 41.5859 351.223 42.1133L355.829 63.5762C355.899 63.9277 355.934 64.1621 355.934 64.2793C355.934 64.5488 355.84 64.7363 355.653 64.8418C355.477 64.9473 355.149 65 354.669 65H354.071C353.544 65 353.21 64.9473 353.069 64.8418C352.928 64.7246 352.811 64.4023 352.717 63.875L352.032 60.3242ZM351.575 57.8281L350.854 53.9961C350.374 51.3828 349.987 48.6055 349.694 45.6641C349.401 48.4766 348.944 51.5059 348.323 54.752L347.725 57.8281H351.575ZM360.163 62.2578H364.171C364.721 62.2578 365.073 62.334 365.225 62.4863C365.366 62.6387 365.436 62.9902 365.436 63.541V63.7168C365.436 64.2676 365.366 64.6191 365.225 64.7715C365.073 64.9238 364.721 65 364.171 65H358.212C357.661 65 357.309 64.9238 357.157 64.7715C357.005 64.6191 356.928 64.2676 356.928 63.7168V42.2891C356.928 41.7383 357.005 41.3867 357.157 41.2344C357.309 41.082 357.661 41.0059 358.212 41.0059H358.88C359.43 41.0059 359.782 41.082 359.934 41.2344C360.087 41.3867 360.163 41.7383 360.163 42.2891V62.2578ZM379.993 42.5V43.0801C379.981 43.7598 379.794 44.0996 379.43 44.0996C379.29 44.0996 379.055 44.0117 378.727 43.8359C378.423 43.6836 378.013 43.6074 377.497 43.6074C376.571 43.6074 375.845 43.8828 375.317 44.4336C374.743 45.0312 374.456 45.8223 374.456 46.8066C374.456 47.6152 374.649 48.3359 375.036 48.9688C375.434 49.5898 376.337 50.6094 377.743 52.0273C378.985 53.293 379.8 54.2949 380.186 55.0332C380.819 56.2402 381.136 57.5527 381.136 58.9707C381.136 61.0566 380.485 62.709 379.184 63.9277C378.2 64.8535 376.993 65.3164 375.563 65.3164C374.848 65.3164 374.145 65.2051 373.454 64.9824C372.763 64.748 372.323 64.4844 372.136 64.1914C372.054 64.0625 372.013 63.752 372.013 63.2598V62.5742C372.013 61.8711 372.2 61.5195 372.575 61.5195C372.704 61.5195 373.055 61.6719 373.63 61.9766C373.958 62.1523 374.403 62.2402 374.966 62.2402C375.915 62.2402 376.653 61.9531 377.18 61.3789C377.708 60.793 377.971 59.9844 377.971 58.9531C377.971 58.0859 377.778 57.3066 377.391 56.6152C377.016 55.9238 376.302 55.0625 375.247 54.0312C374.204 53.0117 373.489 52.2852 373.102 51.8516C372.727 51.4062 372.393 50.9141 372.1 50.375C371.55 49.3555 371.274 48.166 371.274 46.8066C371.274 44.6973 371.895 43.0801 373.138 41.9551C374.075 41.1113 375.27 40.6895 376.723 40.6895C377.321 40.6895 377.913 40.7598 378.499 40.9004C379.096 41.041 379.513 41.2109 379.747 41.4102C379.911 41.5508 379.993 41.791 379.993 42.1309V42.5ZM384.081 41.0059H384.679C385.229 41.0059 385.581 41.082 385.733 41.2344C385.886 41.3867 385.962 41.7383 385.962 42.2891V57.9512C385.962 59.6387 386.073 60.7109 386.296 61.168C386.671 61.9062 387.356 62.2754 388.352 62.2754C389.466 62.2754 390.169 61.8359 390.462 60.957C390.602 60.5469 390.673 59.7031 390.673 58.4258V42.2891C390.673 41.7383 390.749 41.3867 390.901 41.2344C391.054 41.082 391.405 41.0059 391.956 41.0059H392.554C393.104 41.0059 393.456 41.082 393.608 41.2344C393.761 41.3867 393.837 41.7383 393.837 42.2891V58.4258C393.837 59.8906 393.749 61.0156 393.573 61.8008C393.397 62.5742 393.081 63.2129 392.624 63.7168C391.698 64.7832 390.245 65.3164 388.265 65.3164C385.874 65.3164 384.268 64.4902 383.448 62.8379C383.015 61.9473 382.798 60.3184 382.798 57.9512V42.2891C382.798 41.7383 382.874 41.3867 383.026 41.2344C383.179 41.082 383.53 41.0059 384.081 41.0059ZM402.952 53.3281L406.784 63.4883C406.936 63.8867 407.013 64.1562 407.013 64.2969C407.013 64.5547 406.919 64.7363 406.731 64.8418C406.544 64.9473 406.21 65 405.729 65H405.114C404.61 65 404.294 64.959 404.165 64.877C404.036 64.7832 403.884 64.4961 403.708 64.0156L399.683 53.2578V63.7168C399.683 64.2676 399.606 64.6191 399.454 64.7715C399.302 64.9238 398.95 65 398.399 65H397.731C397.181 65 396.829 64.9238 396.677 64.7715C396.524 64.6191 396.448 64.2676 396.448 63.7168V42.2891C396.448 41.7383 396.524 41.3867 396.677 41.2344C396.829 41.082 397.181 41.0059 397.731 41.0059H400.702C402.261 41.0059 403.433 41.3047 404.218 41.9023C405.577 42.9453 406.257 44.7266 406.257 47.2461C406.257 49.3203 405.782 50.9668 404.833 52.1855C404.376 52.7598 403.749 53.1406 402.952 53.3281ZM399.683 51.6406C400.796 51.6289 401.575 51.4414 402.02 51.0781C402.747 50.4688 403.11 49.373 403.11 47.791C403.11 46.127 402.817 44.9727 402.231 44.3281C401.821 43.8828 401.142 43.6602 400.192 43.6602C400.075 43.6602 399.905 43.6602 399.683 43.6602V51.6406ZM412.032 43.748V51.3242H415.618C416.181 51.3242 416.532 51.4004 416.673 51.5527C416.825 51.7051 416.901 52.0566 416.901 52.6074V52.7832C416.901 53.334 416.825 53.6855 416.673 53.8379C416.532 53.9902 416.181 54.0664 415.618 54.0664H412.032V63.7168C412.032 64.2676 411.956 64.6191 411.804 64.7715C411.651 64.9238 411.3 65 410.749 65H410.081C409.53 65 409.179 64.9238 409.026 64.7715C408.874 64.6191 408.798 64.2676 408.798 63.7168V42.2891C408.798 41.7383 408.874 41.3867 409.026 41.2344C409.179 41.082 409.53 41.0059 410.081 41.0059H416.146C416.708 41.0059 417.06 41.082 417.2 41.2344C417.353 41.3867 417.429 41.7383 417.429 42.2891V42.4648C417.429 43.0156 417.353 43.3672 417.2 43.5195C417.06 43.6719 416.708 43.748 416.146 43.748H412.032ZM420.146 41.0059H420.814C421.364 41.0059 421.716 41.082 421.868 41.2344C422.021 41.3867 422.097 41.7383 422.097 42.2891V63.7168C422.097 64.2676 422.021 64.6191 421.868 64.7715C421.716 64.9238 421.364 65 420.814 65H420.146C419.595 65 419.243 64.9238 419.091 64.7715C418.939 64.6191 418.862 64.2676 418.862 63.7168V42.2891C418.862 41.7383 418.939 41.3867 419.091 41.2344C419.243 41.082 419.595 41.0059 420.146 41.0059ZM433.445 59.2344C432.941 55.625 432.689 52.5312 432.689 49.9531V42.2891C432.689 41.7383 432.765 41.3867 432.917 41.2344C433.058 41.082 433.409 41.0059 433.972 41.0059H434.64C435.191 41.0059 435.542 41.082 435.695 41.2344C435.847 41.3867 435.923 41.7383 435.923 42.2891V63.7168C435.923 64.2676 435.847 64.6191 435.695 64.7715C435.542 64.9238 435.191 65 434.64 65H433.972C433.445 65 433.116 64.959 432.987 64.877C432.87 64.7832 432.73 64.4902 432.566 63.998L429.279 54.207C428.786 52.7305 428.482 51.7871 428.364 51.377C428.259 50.9551 427.89 49.3438 427.257 46.543C427.339 47.1992 427.433 48.4062 427.538 50.1641C427.679 52.2617 427.755 53.7207 427.767 54.541L427.907 63.7168C427.919 64.2793 427.849 64.6367 427.696 64.7891C427.556 64.9297 427.204 65 426.642 65H426.027C425.476 65 425.124 64.9238 424.972 64.7715C424.82 64.6191 424.743 64.2676 424.743 63.7168V42.2891C424.743 41.7266 424.82 41.375 424.972 41.2344C425.124 41.082 425.476 41.0059 426.027 41.0059H426.695C427.21 41.0059 427.532 41.0527 427.661 41.1465C427.79 41.2402 427.937 41.5273 428.101 42.0078L430.984 50.5859C431.909 53.3398 432.73 56.2227 433.445 59.2344ZM447.095 55.1211H445.583C445.033 55.1211 444.681 55.0449 444.529 54.8926C444.376 54.7402 444.3 54.3887 444.3 53.8379V53.6621C444.3 53.1113 444.376 52.7598 444.529 52.6074C444.681 52.4551 445.033 52.3789 445.583 52.3789H448.888C449.38 52.3789 449.714 52.4375 449.89 52.5547C450.077 52.6602 450.171 52.8594 450.171 53.1523V53.3105C450.171 57.0137 449.943 59.7266 449.486 61.4492C449.146 62.7031 448.536 63.6641 447.658 64.332C446.79 64.9883 445.7 65.3164 444.388 65.3164C442.115 65.3164 440.491 64.3789 439.519 62.5039C438.546 60.6289 438.06 57.4941 438.06 53.0996C438.06 48.0488 438.587 44.6973 439.642 43.0449C440.638 41.4746 442.167 40.6895 444.23 40.6895C446.667 40.6895 448.378 41.7207 449.363 43.7832C449.679 44.4512 449.837 44.9199 449.837 45.1895C449.837 45.4004 449.779 45.5586 449.661 45.6641C449.556 45.7695 449.298 45.9043 448.888 46.0684L448.29 46.3145C447.892 46.4902 447.616 46.5781 447.464 46.5781C447.265 46.5781 447.124 46.5195 447.042 46.4023C446.96 46.2734 446.796 45.8809 446.55 45.2246C446.128 44.0996 445.349 43.5371 444.212 43.5371C443.099 43.5371 442.355 44.2051 441.98 45.541C441.605 46.8887 441.417 49.373 441.417 52.9941C441.417 56.627 441.616 59.0879 442.015 60.377C442.413 61.666 443.181 62.3105 444.318 62.3105C444.939 62.3105 445.437 62.1582 445.812 61.8535C446.187 61.5371 446.486 61.0215 446.708 60.3066C446.978 59.4863 447.113 58.1328 447.113 56.2461C447.113 56.0352 447.107 55.6602 447.095 55.1211ZM459.208 41.0059H461.898C463.281 41.0059 464.376 41.1699 465.185 41.498C465.994 41.8145 466.714 42.377 467.347 43.1855C467.874 43.877 468.279 44.6152 468.56 45.4004C468.853 46.1855 469.081 47.1875 469.246 48.4062C469.421 49.7891 469.509 51.4297 469.509 53.3281C469.509 55.8594 469.322 57.8984 468.947 59.4453C468.583 60.9805 467.997 62.1934 467.189 63.084C466.708 63.5996 466.175 63.9922 465.589 64.2617C465.015 64.5195 464.259 64.7129 463.322 64.8418C462.49 64.9473 461.564 65 460.544 65H459.208C458.658 65 458.306 64.9238 458.154 64.7715C458.001 64.6191 457.925 64.2676 457.925 63.7168V42.2891C457.925 41.7383 458.001 41.3867 458.154 41.2344C458.306 41.082 458.658 41.0059 459.208 41.0059ZM461.16 62.1875C462.343 62.1875 463.251 61.9941 463.884 61.6074C464.388 61.3145 464.781 60.9395 465.062 60.4824C465.343 60.0137 465.572 59.3809 465.747 58.584C466.005 57.3887 466.134 55.6543 466.134 53.3809C466.134 49.7129 465.806 47.1875 465.15 45.8047C464.494 44.4219 463.292 43.7305 461.546 43.7305C461.476 43.7305 461.347 43.7305 461.16 43.7305V62.1875ZM478.431 60.3242H473.668L472.982 63.875C472.876 64.4023 472.753 64.7246 472.613 64.8418C472.484 64.9473 472.15 65 471.611 65H471.119C470.626 65 470.287 64.9473 470.099 64.8418C469.923 64.7363 469.835 64.543 469.835 64.2617C469.835 64.1562 469.876 63.9277 469.959 63.5762L474.617 42.1133C474.734 41.5859 474.857 41.2695 474.986 41.1641C475.126 41.0586 475.46 41.0059 475.988 41.0059H476.251C476.791 41.0059 477.125 41.0586 477.253 41.1641C477.394 41.2695 477.517 41.5859 477.623 42.1133L482.228 63.5762C482.298 63.9277 482.334 64.1621 482.334 64.2793C482.334 64.5488 482.24 64.7363 482.052 64.8418C481.876 64.9473 481.548 65 481.068 65H480.47C479.943 65 479.609 64.9473 479.468 64.8418C479.328 64.7246 479.21 64.4023 479.117 63.875L478.431 60.3242ZM477.974 57.8281L477.253 53.9961C476.773 51.3828 476.386 48.6055 476.093 45.6641C475.8 48.4766 475.343 51.5059 474.722 54.752L474.125 57.8281H477.974ZM486.826 52.0977C487.002 50.8438 487.318 49.2383 487.775 47.2812L487.968 46.4375L489.023 42.0957C489.152 41.5801 489.281 41.2695 489.41 41.1641C489.55 41.0586 489.884 41.0059 490.412 41.0059H491.115C491.56 41.0059 491.847 41.0352 491.976 41.0938C492.257 41.1992 492.398 41.4102 492.398 41.7266C492.398 41.8438 492.339 42.0957 492.222 42.4824L488.496 54.6816V63.7168C488.496 64.2676 488.42 64.6191 488.267 64.7715C488.115 64.9238 487.763 65 487.212 65H486.545C485.994 65 485.642 64.9238 485.49 64.7715C485.337 64.6191 485.261 64.2676 485.261 63.7168V54.6816L480.796 42.5176C480.656 42.1309 480.586 41.8613 480.586 41.709C480.586 41.4512 480.679 41.2695 480.867 41.1641C481.054 41.0586 481.382 41.0059 481.851 41.0059H482.607C483.123 41.0059 483.445 41.0527 483.574 41.1465C483.703 41.2402 483.843 41.5391 483.996 42.043L485.261 46.2441C485.355 46.5605 485.466 46.9297 485.595 47.3516C486.193 49.2266 486.603 50.8086 486.826 52.0977Z" fill="black"/>
<rect x="499.5" y="31.5" width="2" height="41" fill="#00F89E"/>
<rect x="499.5" y="31.5" width="2" height="41" fill="#00F89E"/>
<rect x="1.5" y="31.5" width="2" height="41" fill="#00F89E"/>
</svg>
