<svg width="12" height="12" viewBox="0 0 12 12" fill="none" xmlns="http://www.w3.org/2000/svg">
<path d="M5.334 0.268999C4.746 0.352999 4.809 0.688999 4.809 1.34V2.348C4.809 2.915 4.935 3.965 4.662 4.238C4.389 4.511 3.36 4.385 2.751 4.385C2.163 4.385 1.092 4.259 0.819 4.532C0.63 4.721 0.672 5.225 0.672 5.624C0.672 6.002 0.609 6.527 0.819 6.737C1.092 7.01 2.163 6.884 2.73 6.884C3.255 6.884 4.368 6.758 4.662 7.031C4.893 7.262 4.809 8.207 4.809 8.963C4.809 9.614 4.704 10.538 4.935 10.832C5.103 11.042 5.691 11 6.069 11C6.468 11 6.951 11.063 7.161 10.853C7.434 10.58 7.308 9.488 7.308 8.942C7.308 8.291 7.182 7.304 7.455 7.031C7.728 6.758 8.778 6.884 9.366 6.884C9.954 6.884 11.004 7.01 11.298 6.737C11.55 6.485 11.529 4.763 11.298 4.532C11.004 4.259 9.891 4.385 9.387 4.385C8.715 4.385 7.728 4.532 7.455 4.238C7.182 3.965 7.308 2.81 7.308 2.327C7.308 1.823 7.434 0.668 7.161 0.395C6.93 0.163999 5.733 0.206 5.334 0.268999Z" fill="black"/>
</svg>
