<svg width="22" height="2684" viewBox="0 0 22 2684" fill="none" xmlns="http://www.w3.org/2000/svg">
<path d="M11 0.333333C5.10896 0.333333 0.333333 5.10896 0.333333 11C0.333333 16.891 5.10896 21.6667 11 21.6667C16.891 21.6667 21.6667 16.891 21.6667 11C21.6667 5.10896 16.891 0.333333 11 0.333333ZM10.9999 2662.33C5.10885 2662.33 0.333217 2667.11 0.333217 2673C0.333216 2678.89 5.10885 2683.67 10.9999 2683.67C16.8909 2683.67 21.6666 2678.89 21.6666 2673C21.6666 2667.11 16.8909 2662.33 10.9999 2662.33ZM9 11L9 13.9977L13 13.9977L13 11L9 11ZM9 19.9932L9 25.9887L13 25.9887L13 19.9932L9 19.9932ZM9 31.9842L9 37.9797L13 37.9797L13 31.9842L9 31.9842ZM9 43.9752L9 49.9707L13 49.9707L13 43.9752L9 43.9752ZM9 55.9662L9 61.9617L13 61.9617L13 55.9662L9 55.9662ZM9 67.9572L9 73.9527L13 73.9527L13 67.9572L9 67.9572ZM9 79.9482L9 85.9437L13 85.9437L13 79.9482L9 79.9482ZM9 91.9392L9 97.9347L13 97.9347L13 91.9392L9 91.9392ZM9 103.93L9 109.926L13 109.926L13 103.93L9 103.93ZM9 115.921L9 121.917L13 121.917L13 115.921L9 115.921ZM8.99999 127.912L8.99999 133.908L13 133.908L13 127.912L8.99999 127.912ZM8.99999 139.903L8.99999 145.899L13 145.899L13 139.903L8.99999 139.903ZM8.99999 151.894L8.99999 157.89L13 157.89L13 151.894L8.99999 151.894ZM8.99999 163.885L8.99999 169.881L13 169.881L13 163.885L8.99999 163.885ZM8.99999 175.876L8.99999 181.872L13 181.872L13 175.876L8.99999 175.876ZM8.99999 187.867L8.99999 193.863L13 193.863L13 187.867L8.99999 187.867ZM8.99999 199.858L8.99999 205.854L13 205.854L13 199.858L8.99999 199.858ZM8.99999 211.849L8.99999 217.845L13 217.845L13 211.849L8.99999 211.849ZM8.99999 223.84L8.99999 229.836L13 229.836L13 223.84L8.99999 223.84ZM8.99999 235.831L8.99999 241.827L13 241.827L13 235.831L8.99999 235.831ZM8.99999 247.822L8.99999 253.818L13 253.818L13 247.822L8.99999 247.822ZM8.99999 259.813L8.99999 265.809L13 265.809L13 259.813L8.99999 259.813ZM8.99999 271.804L8.99999 277.8L13 277.8L13 271.804L8.99999 271.804ZM8.99999 283.795L8.99999 289.791L13 289.791L13 283.795L8.99999 283.795ZM8.99999 295.786L8.99999 301.782L13 301.782L13 295.786L8.99999 295.786ZM8.99999 307.777L8.99999 313.773L13 313.773L13 307.777L8.99999 307.777ZM8.99999 319.768L8.99999 325.763L13 325.763L13 319.768L8.99999 319.768ZM8.99999 331.759L8.99999 337.754L13 337.754L13 331.759L8.99999 331.759ZM8.99999 343.75L8.99999 349.745L13 349.745L13 343.75L8.99999 343.75ZM8.99998 355.741L8.99998 361.736L13 361.736L13 355.741L8.99998 355.741ZM8.99998 367.732L8.99998 373.727L13 373.727L13 367.732L8.99998 367.732ZM8.99998 379.723L8.99998 385.718L13 385.718L13 379.723L8.99998 379.723ZM8.99998 391.714L8.99998 397.709L13 397.709L13 391.714L8.99998 391.714ZM8.99998 403.705L8.99998 409.7L13 409.7L13 403.705L8.99998 403.705ZM8.99998 415.696L8.99998 421.691L13 421.691L13 415.696L8.99998 415.696ZM8.99998 427.687L8.99998 433.682L13 433.682L13 427.687L8.99998 427.687ZM8.99998 439.678L8.99998 445.673L13 445.673L13 439.678L8.99998 439.678ZM8.99998 451.669L8.99998 457.664L13 457.664L13 451.669L8.99998 451.669ZM8.99998 463.66L8.99998 469.655L13 469.655L13 463.66L8.99998 463.66ZM8.99998 475.651L8.99998 481.646L13 481.646L13 475.651L8.99998 475.651ZM8.99998 487.642L8.99998 493.637L13 493.637L13 487.642L8.99998 487.642ZM8.99998 499.633L8.99998 505.628L13 505.628L13 499.633L8.99998 499.633ZM8.99998 511.623L8.99998 517.619L13 517.619L13 511.623L8.99998 511.623ZM8.99998 523.614L8.99998 529.61L13 529.61L13 523.614L8.99998 523.614ZM8.99998 535.605L8.99998 541.601L13 541.601L13 535.605L8.99998 535.605ZM8.99998 547.596L8.99998 553.592L13 553.592L13 547.596L8.99998 547.596ZM8.99998 559.587L8.99998 565.583L13 565.583L13 559.587L8.99998 559.587ZM8.99998 571.578L8.99998 577.574L13 577.574L13 571.578L8.99998 571.578ZM8.99997 583.569L8.99997 589.565L13 589.565L13 583.569L8.99997 583.569ZM8.99997 595.56L8.99997 601.556L13 601.556L13 595.56L8.99997 595.56ZM8.99997 607.551L8.99997 613.547L13 613.547L13 607.551L8.99997 607.551ZM8.99997 619.542L8.99997 625.538L13 625.538L13 619.542L8.99997 619.542ZM8.99997 631.533L8.99997 637.529L13 637.529L13 631.533L8.99997 631.533ZM8.99997 643.524L8.99997 649.52L13 649.52L13 643.524L8.99997 643.524ZM8.99997 655.515L8.99997 661.511L13 661.511L13 655.515L8.99997 655.515ZM8.99997 667.506L8.99997 673.502L13 673.502L13 667.506L8.99997 667.506ZM8.99997 679.497L8.99997 685.492L13 685.492L13 679.497L8.99997 679.497ZM8.99997 691.488L8.99997 697.483L13 697.483L13 691.488L8.99997 691.488ZM8.99997 703.479L8.99997 709.474L13 709.474L13 703.479L8.99997 703.479ZM8.99997 715.47L8.99997 721.465L13 721.465L13 715.47L8.99997 715.47ZM8.99997 727.461L8.99997 733.456L13 733.456L13 727.461L8.99997 727.461ZM8.99997 739.452L8.99997 745.447L13 745.447L13 739.452L8.99997 739.452ZM8.99997 751.443L8.99997 757.438L13 757.438L13 751.443L8.99997 751.443ZM8.99997 763.434L8.99997 769.429L13 769.429L13 763.434L8.99997 763.434ZM8.99997 775.425L8.99997 781.42L13 781.42L13 775.425L8.99997 775.425ZM8.99997 787.416L8.99997 793.411L13 793.411L13 787.416L8.99997 787.416ZM8.99997 799.407L8.99997 805.402L13 805.402L13 799.407L8.99997 799.407ZM8.99997 811.398L8.99996 817.393L13 817.393L13 811.398L8.99997 811.398ZM8.99996 823.389L8.99996 829.384L13 829.384L13 823.389L8.99996 823.389ZM8.99996 835.38L8.99996 841.375L13 841.375L13 835.38L8.99996 835.38ZM8.99996 847.37L8.99996 853.366L13 853.366L13 847.37L8.99996 847.37ZM8.99996 859.362L8.99996 865.357L13 865.357L13 859.362L8.99996 859.362ZM8.99996 871.352L8.99996 877.348L13 877.348L13 871.352L8.99996 871.352ZM8.99996 883.343L8.99996 889.339L13 889.339L13 883.343L8.99996 883.343ZM8.99996 895.334L8.99996 901.33L13 901.33L13 895.334L8.99996 895.334ZM8.99996 907.325L8.99996 913.321L13 913.321L13 907.325L8.99996 907.325ZM8.99996 919.316L8.99996 925.312L13 925.312L13 919.316L8.99996 919.316ZM8.99996 931.307L8.99996 937.303L13 937.303L13 931.307L8.99996 931.307ZM8.99996 943.298L8.99996 949.294L13 949.294L13 943.298L8.99996 943.298ZM8.99996 955.289L8.99996 961.285L13 961.285L13 955.289L8.99996 955.289ZM8.99996 967.28L8.99996 973.276L13 973.276L13 967.28L8.99996 967.28ZM8.99996 979.271L8.99996 985.267L13 985.267L13 979.271L8.99996 979.271ZM8.99996 991.262L8.99996 997.258L13 997.258L13 991.262L8.99996 991.262ZM8.99996 1003.25L8.99996 1009.25L13 1009.25L13 1003.25L8.99996 1003.25ZM8.99996 1015.24L8.99996 1021.24L13 1021.24L13 1015.24L8.99996 1015.24ZM8.99996 1027.24L8.99996 1033.23L13 1033.23L13 1027.24L8.99996 1027.24ZM8.99996 1039.23L8.99995 1045.22L13 1045.22L13 1039.23L8.99996 1039.23ZM8.99995 1051.22L8.99995 1057.21L13 1057.21L13 1051.22L8.99995 1051.22ZM8.99995 1063.21L8.99995 1069.2L13 1069.2L13 1063.21L8.99995 1063.21ZM8.99995 1075.2L8.99995 1081.19L13 1081.19L13 1075.2L8.99995 1075.2ZM8.99995 1087.19L8.99995 1093.19L13 1093.19L13 1087.19L8.99995 1087.19ZM8.99995 1099.18L8.99995 1105.18L13 1105.18L13 1099.18L8.99995 1099.18ZM8.99995 1111.17L8.99995 1117.17L13 1117.17L13 1111.17L8.99995 1111.17ZM8.99995 1123.16L8.99995 1129.16L13 1129.16L13 1123.16L8.99995 1123.16ZM8.99995 1135.15L8.99995 1141.15L13 1141.15L13 1135.15L8.99995 1135.15ZM8.99995 1147.14L8.99995 1153.14L13 1153.14L13 1147.14L8.99995 1147.14ZM8.99995 1159.14L8.99995 1165.13L12.9999 1165.13L12.9999 1159.14L8.99995 1159.14ZM8.99995 1171.13L8.99995 1177.12L12.9999 1177.12L12.9999 1171.13L8.99995 1171.13ZM8.99995 1183.12L8.99995 1189.11L12.9999 1189.11L12.9999 1183.12L8.99995 1183.12ZM8.99995 1195.11L8.99995 1201.1L12.9999 1201.1L12.9999 1195.11L8.99995 1195.11ZM8.99995 1207.1L8.99995 1213.1L12.9999 1213.1L12.9999 1207.1L8.99995 1207.1ZM8.99995 1219.09L8.99995 1225.09L12.9999 1225.09L12.9999 1219.09L8.99995 1219.09ZM8.99995 1231.08L8.99995 1237.08L12.9999 1237.08L12.9999 1231.08L8.99995 1231.08ZM8.99995 1243.07L8.99995 1249.07L12.9999 1249.07L12.9999 1243.07L8.99995 1243.07ZM8.99995 1255.06L8.99995 1261.06L12.9999 1261.06L12.9999 1255.06L8.99995 1255.06ZM8.99995 1267.05L8.99994 1273.05L12.9999 1273.05L12.9999 1267.05L8.99995 1267.05ZM8.99994 1279.05L8.99994 1285.04L12.9999 1285.04L12.9999 1279.05L8.99994 1279.05ZM8.99994 1291.04L8.99994 1297.03L12.9999 1297.03L12.9999 1291.04L8.99994 1291.04ZM8.99994 1303.03L8.99994 1309.02L12.9999 1309.02L12.9999 1303.03L8.99994 1303.03ZM8.99994 1315.02L8.99994 1321.01L12.9999 1321.01L12.9999 1315.02L8.99994 1315.02ZM8.99994 1327.01L8.99994 1333L12.9999 1333L12.9999 1327.01L8.99994 1327.01ZM8.99994 1339L8.99994 1345L12.9999 1345L12.9999 1339L8.99994 1339ZM8.99994 1350.99L8.99994 1356.99L12.9999 1356.99L12.9999 1350.99L8.99994 1350.99ZM8.99994 1362.98L8.99994 1368.98L12.9999 1368.98L12.9999 1362.98L8.99994 1362.98ZM8.99994 1374.97L8.99994 1380.97L12.9999 1380.97L12.9999 1374.97L8.99994 1374.97ZM8.99994 1386.96L8.99994 1392.96L12.9999 1392.96L12.9999 1386.96L8.99994 1386.96ZM8.99994 1398.96L8.99994 1404.95L12.9999 1404.95L12.9999 1398.96L8.99994 1398.96ZM8.99994 1410.95L8.99994 1416.94L12.9999 1416.94L12.9999 1410.95L8.99994 1410.95ZM8.99994 1422.94L8.99994 1428.93L12.9999 1428.93L12.9999 1422.94L8.99994 1422.94ZM8.99994 1434.93L8.99994 1440.92L12.9999 1440.92L12.9999 1434.93L8.99994 1434.93ZM8.99994 1446.92L8.99994 1452.91L12.9999 1452.91L12.9999 1446.92L8.99994 1446.92ZM8.99994 1458.91L8.99994 1464.91L12.9999 1464.91L12.9999 1458.91L8.99994 1458.91ZM8.99994 1470.9L8.99994 1476.9L12.9999 1476.9L12.9999 1470.9L8.99994 1470.9ZM8.99994 1482.89L8.99994 1488.89L12.9999 1488.89L12.9999 1482.89L8.99994 1482.89ZM8.99994 1494.88L8.99993 1500.88L12.9999 1500.88L12.9999 1494.88L8.99994 1494.88ZM8.99993 1506.87L8.99993 1512.87L12.9999 1512.87L12.9999 1506.87L8.99993 1506.87ZM8.99993 1518.86L8.99993 1524.86L12.9999 1524.86L12.9999 1518.86L8.99993 1518.86ZM8.99993 1530.86L8.99993 1536.85L12.9999 1536.85L12.9999 1530.86L8.99993 1530.86ZM8.99993 1542.85L8.99993 1548.84L12.9999 1548.84L12.9999 1542.85L8.99993 1542.85ZM8.99993 1554.84L8.99993 1560.83L12.9999 1560.83L12.9999 1554.84L8.99993 1554.84ZM8.99993 1566.83L8.99993 1572.82L12.9999 1572.82L12.9999 1566.83L8.99993 1566.83ZM8.99993 1578.82L8.99993 1584.81L12.9999 1584.81L12.9999 1578.82L8.99993 1578.82ZM8.99993 1590.81L8.99993 1596.81L12.9999 1596.81L12.9999 1590.81L8.99993 1590.81ZM8.99993 1602.8L8.99993 1608.8L12.9999 1608.8L12.9999 1602.8L8.99993 1602.8ZM8.99993 1614.79L8.99993 1620.79L12.9999 1620.79L12.9999 1614.79L8.99993 1614.79ZM8.99993 1626.78L8.99993 1632.78L12.9999 1632.78L12.9999 1626.78L8.99993 1626.78ZM8.99993 1638.77L8.99993 1644.77L12.9999 1644.77L12.9999 1638.77L8.99993 1638.77ZM8.99993 1650.77L8.99993 1656.76L12.9999 1656.76L12.9999 1650.77L8.99993 1650.77ZM8.99993 1662.76L8.99993 1668.75L12.9999 1668.75L12.9999 1662.76L8.99993 1662.76ZM8.99993 1674.75L8.99993 1680.74L12.9999 1680.74L12.9999 1674.75L8.99993 1674.75ZM8.99993 1686.74L8.99993 1692.73L12.9999 1692.73L12.9999 1686.74L8.99993 1686.74ZM8.99993 1698.73L8.99993 1704.72L12.9999 1704.72L12.9999 1698.73L8.99993 1698.73ZM8.99993 1710.72L8.99993 1716.72L12.9999 1716.72L12.9999 1710.72L8.99993 1710.72ZM8.99993 1722.71L8.99992 1728.71L12.9999 1728.71L12.9999 1722.71L8.99993 1722.71ZM8.99992 1734.7L8.99992 1740.7L12.9999 1740.7L12.9999 1734.7L8.99992 1734.7ZM8.99992 1746.69L8.99992 1752.69L12.9999 1752.69L12.9999 1746.69L8.99992 1746.69ZM8.99992 1758.68L8.99992 1764.68L12.9999 1764.68L12.9999 1758.68L8.99992 1758.68ZM8.99992 1770.67L8.99992 1776.67L12.9999 1776.67L12.9999 1770.67L8.99992 1770.67ZM8.99992 1782.67L8.99992 1788.66L12.9999 1788.66L12.9999 1782.67L8.99992 1782.67ZM8.99992 1794.66L8.99992 1800.65L12.9999 1800.65L12.9999 1794.66L8.99992 1794.66ZM8.99992 1806.65L8.99992 1812.64L12.9999 1812.64L12.9999 1806.65L8.99992 1806.65ZM8.99992 1818.64L8.99992 1824.63L12.9999 1824.63L12.9999 1818.64L8.99992 1818.64ZM8.99992 1830.63L8.99992 1836.63L12.9999 1836.63L12.9999 1830.63L8.99992 1830.63ZM8.99992 1842.62L8.99992 1848.62L12.9999 1848.62L12.9999 1842.62L8.99992 1842.62ZM8.99992 1854.61L8.99992 1860.61L12.9999 1860.61L12.9999 1854.61L8.99992 1854.61ZM8.99992 1866.6L8.99992 1872.6L12.9999 1872.6L12.9999 1866.6L8.99992 1866.6ZM8.99992 1878.59L8.99992 1884.59L12.9999 1884.59L12.9999 1878.59L8.99992 1878.59ZM8.99992 1890.58L8.99992 1896.58L12.9999 1896.58L12.9999 1890.58L8.99992 1890.58ZM8.99992 1902.58L8.99992 1908.57L12.9999 1908.57L12.9999 1902.58L8.99992 1902.58ZM8.99992 1914.57L8.99992 1920.56L12.9999 1920.56L12.9999 1914.57L8.99992 1914.57ZM8.99992 1926.56L8.99992 1932.55L12.9999 1932.55L12.9999 1926.56L8.99992 1926.56ZM8.99992 1938.55L8.99992 1944.54L12.9999 1944.54L12.9999 1938.55L8.99992 1938.55ZM8.99992 1950.54L8.99991 1956.54L12.9999 1956.54L12.9999 1950.54L8.99992 1950.54ZM8.99991 1962.53L8.99991 1968.53L12.9999 1968.53L12.9999 1962.53L8.99991 1962.53ZM8.99991 1974.52L8.99991 1980.52L12.9999 1980.52L12.9999 1974.52L8.99991 1974.52ZM8.99991 1986.51L8.99991 1992.51L12.9999 1992.51L12.9999 1986.51L8.99991 1986.51ZM8.99991 1998.5L8.99991 2004.5L12.9999 2004.5L12.9999 1998.5L8.99991 1998.5ZM8.99991 2010.49L8.99991 2016.49L12.9999 2016.49L12.9999 2010.49L8.99991 2010.49ZM8.99991 2022.49L8.99991 2028.48L12.9999 2028.48L12.9999 2022.49L8.99991 2022.49ZM8.99991 2034.48L8.99991 2040.47L12.9999 2040.47L12.9999 2034.48L8.99991 2034.48ZM8.99991 2046.47L8.99991 2052.46L12.9999 2052.46L12.9999 2046.47L8.99991 2046.47ZM8.99991 2058.46L8.99991 2064.45L12.9999 2064.45L12.9999 2058.46L8.99991 2058.46ZM8.99991 2070.45L8.99991 2076.45L12.9999 2076.45L12.9999 2070.45L8.99991 2070.45ZM8.99991 2082.44L8.99991 2088.44L12.9999 2088.44L12.9999 2082.44L8.99991 2082.44ZM8.99991 2094.43L8.99991 2100.43L12.9999 2100.43L12.9999 2094.43L8.99991 2094.43ZM8.99991 2106.42L8.99991 2112.42L12.9999 2112.42L12.9999 2106.42L8.99991 2106.42ZM8.99991 2118.41L8.99991 2124.41L12.9999 2124.41L12.9999 2118.41L8.99991 2118.41ZM8.99991 2130.41L8.99991 2136.4L12.9999 2136.4L12.9999 2130.41L8.99991 2130.41ZM8.99991 2142.4L8.99991 2148.39L12.9999 2148.39L12.9999 2142.4L8.99991 2142.4ZM8.99991 2154.39L8.99991 2160.38L12.9999 2160.38L12.9999 2154.39L8.99991 2154.39ZM8.99991 2166.38L8.99991 2172.37L12.9999 2172.37L12.9999 2166.38L8.99991 2166.38ZM8.99991 2178.37L8.9999 2184.37L12.9999 2184.37L12.9999 2178.37L8.99991 2178.37ZM8.9999 2190.36L8.9999 2196.36L12.9999 2196.36L12.9999 2190.36L8.9999 2190.36ZM8.9999 2202.35L8.9999 2208.35L12.9999 2208.35L12.9999 2202.35L8.9999 2202.35ZM8.9999 2214.34L8.9999 2220.34L12.9999 2220.34L12.9999 2214.34L8.9999 2214.34ZM8.9999 2226.34L8.9999 2232.33L12.9999 2232.33L12.9999 2226.34L8.9999 2226.34ZM8.9999 2238.33L8.9999 2244.32L12.9999 2244.32L12.9999 2238.33L8.9999 2238.33ZM8.9999 2250.32L8.9999 2256.31L12.9999 2256.31L12.9999 2250.32L8.9999 2250.32ZM8.9999 2262.31L8.9999 2268.3L12.9999 2268.3L12.9999 2262.31L8.9999 2262.31ZM8.9999 2274.3L8.9999 2280.3L12.9999 2280.3L12.9999 2274.3L8.9999 2274.3ZM8.9999 2286.29L8.9999 2292.29L12.9999 2292.29L12.9999 2286.29L8.9999 2286.29ZM8.9999 2298.28L8.9999 2304.28L12.9999 2304.28L12.9999 2298.28L8.9999 2298.28ZM8.9999 2310.27L8.9999 2316.27L12.9999 2316.27L12.9999 2310.27L8.9999 2310.27ZM8.9999 2322.26L8.9999 2328.26L12.9999 2328.26L12.9999 2322.26L8.9999 2322.26ZM8.9999 2334.26L8.9999 2340.25L12.9999 2340.25L12.9999 2334.26L8.9999 2334.26ZM8.9999 2346.25L8.9999 2352.24L12.9999 2352.24L12.9999 2346.25L8.9999 2346.25ZM8.9999 2358.24L8.9999 2364.23L12.9999 2364.23L12.9999 2358.24L8.9999 2358.24ZM8.9999 2370.23L8.9999 2376.23L12.9999 2376.23L12.9999 2370.23L8.9999 2370.23ZM8.9999 2382.22L8.9999 2388.22L12.9999 2388.22L12.9999 2382.22L8.9999 2382.22ZM8.9999 2394.21L8.9999 2400.21L12.9999 2400.21L12.9999 2394.21L8.9999 2394.21ZM8.9999 2406.2L8.9999 2412.2L12.9999 2412.2L12.9999 2406.2L8.9999 2406.2ZM8.99989 2418.19L8.99989 2424.19L12.9999 2424.19L12.9999 2418.19L8.99989 2418.19ZM8.99989 2430.19L8.99989 2436.18L12.9999 2436.18L12.9999 2430.19L8.99989 2430.19ZM8.99989 2442.18L8.99989 2448.17L12.9999 2448.17L12.9999 2442.18L8.99989 2442.18ZM8.99989 2454.17L8.99989 2460.16L12.9999 2460.16L12.9999 2454.17L8.99989 2454.17ZM8.99989 2466.16L8.99989 2472.16L12.9999 2472.16L12.9999 2466.16L8.99989 2466.16ZM8.99989 2478.15L8.99989 2484.15L12.9999 2484.15L12.9999 2478.15L8.99989 2478.15ZM8.99989 2490.14L8.99989 2496.14L12.9999 2496.14L12.9999 2490.14L8.99989 2490.14ZM8.99989 2502.13L8.99989 2508.13L12.9999 2508.13L12.9999 2502.13L8.99989 2502.13ZM8.99989 2514.12L8.99989 2520.12L12.9999 2520.12L12.9999 2514.12L8.99989 2514.12ZM8.99989 2526.12L8.99989 2532.11L12.9999 2532.11L12.9999 2526.12L8.99989 2526.12ZM8.99989 2538.11L8.99989 2544.1L12.9999 2544.1L12.9999 2538.11L8.99989 2538.11ZM8.99989 2550.1L8.99989 2556.09L12.9999 2556.09L12.9999 2550.1L8.99989 2550.1ZM8.99989 2562.09L8.99989 2568.08L12.9999 2568.08L12.9999 2562.09L8.99989 2562.09ZM8.99989 2574.08L8.99989 2580.08L12.9999 2580.08L12.9999 2574.08L8.99989 2574.08ZM8.99989 2586.07L8.99989 2592.07L12.9999 2592.07L12.9999 2586.07L8.99989 2586.07ZM8.99989 2598.06L8.99989 2604.06L12.9999 2604.06L12.9999 2598.06L8.99989 2598.06ZM8.99989 2610.05L8.99989 2616.05L12.9999 2616.05L12.9999 2610.05L8.99989 2610.05ZM8.99989 2622.05L8.99989 2628.04L12.9999 2628.04L12.9999 2622.05L8.99989 2622.05ZM8.99989 2634.04L8.99989 2640.03L12.9999 2640.03L12.9999 2634.04L8.99989 2634.04ZM8.99988 2646.03L8.99988 2652.02L12.9999 2652.02L12.9999 2646.03L8.99988 2646.03ZM8.99988 2658.02L8.99988 2664.01L12.9999 2664.01L12.9999 2658.02L8.99988 2658.02ZM8.99988 2670.01L8.99988 2673L12.9999 2673L12.9999 2670.01L8.99988 2670.01Z" fill="black"/>
</svg>
