<svg width="24" height="3555" viewBox="0 0 24 3555" fill="none" xmlns="http://www.w3.org/2000/svg">
<path d="M16 0C11.5817 -1.93129e-07 8 3.58172 8 8C8 12.4183 11.5817 16 16 16C20.4183 16 24 12.4183 24 8C24 3.58172 20.4183 1.93129e-07 16 0ZM8 3539C3.58172 3539 -6.59341e-09 3542.58 -1.99722e-07 3547C-3.92852e-07 3551.42 3.58172 3555 8 3555C12.4183 3555 16 3551.42 16 3547C16 3542.58 12.4183 3539 8 3539ZM14.5 7.99661L14.4932 10.9958L17.4932 11.0025L17.5 8.00339L14.5 7.99661ZM14.4797 16.9941L14.4661 22.9924L17.4661 22.9992L17.4797 17.0008L14.4797 16.9941ZM14.4525 28.9907L14.439 34.989L17.439 34.9958L17.4525 28.9975L14.4525 28.9907ZM14.4254 40.9873L14.4119 46.9856L17.4119 46.9924L17.4254 40.9941L14.4254 40.9873ZM14.3983 52.9839L14.3847 58.9822L17.3847 58.989L17.3983 52.9907L14.3983 52.9839ZM14.3712 64.9805L14.3576 70.9788L17.3576 70.9856L17.3712 64.9873L14.3712 64.9805ZM14.3441 76.9771L14.3305 82.9754L17.3305 82.9822L17.3441 76.9839L14.3441 76.9771ZM14.317 88.9737L14.3034 94.972L17.3034 94.9788L17.3169 88.9805L14.317 88.9737ZM14.2898 100.97L14.2763 106.969L17.2763 106.975L17.2898 100.977L14.2898 100.97ZM14.2627 112.967L14.2492 118.965L17.2491 118.972L17.2627 112.974L14.2627 112.967ZM14.2356 124.964L14.222 130.962L17.222 130.969L17.2356 124.97L14.2356 124.964ZM14.2085 136.96L14.1949 142.958L17.1949 142.965L17.2085 136.967L14.2085 136.96ZM14.1814 148.957L14.1678 154.955L17.1678 154.962L17.1814 148.964L14.1814 148.957ZM14.1542 160.953L14.1407 166.952L17.1407 166.958L17.1542 160.96L14.1542 160.953ZM14.1271 172.95L14.1136 178.948L17.1136 178.955L17.1271 172.957L14.1271 172.95ZM14.1 184.947L14.0864 190.945L17.0864 190.952L17.1 184.953L14.1 184.947ZM14.0729 196.943L14.0593 202.942L17.0593 202.948L17.0729 196.95L14.0729 196.943ZM14.0458 208.94L14.0322 214.938L17.0322 214.945L17.0458 208.947L14.0458 208.94ZM14.0186 220.936L14.0051 226.935L17.0051 226.942L17.0186 220.943L14.0186 220.936ZM13.9915 232.933L13.978 238.931L16.978 238.938L16.9915 232.94L13.9915 232.933ZM13.9644 244.93L13.9509 250.928L16.9508 250.935L16.9644 244.936L13.9644 244.93ZM13.9373 256.926L13.9237 262.925L16.9237 262.931L16.9373 256.933L13.9373 256.926ZM13.9102 268.923L13.8966 274.921L16.8966 274.928L16.9102 268.93L13.9102 268.923ZM13.8831 280.92L13.8695 286.918L16.8695 286.925L16.883 280.926L13.8831 280.92ZM13.8559 292.916L13.8424 298.914L16.8424 298.921L16.8559 292.923L13.8559 292.916ZM13.8288 304.913L13.8153 310.911L16.8153 310.918L16.8288 304.92L13.8288 304.913ZM13.8017 316.909L13.7881 322.908L16.7881 322.914L16.8017 316.916L13.8017 316.909ZM13.7746 328.906L13.761 334.904L16.761 334.911L16.7746 328.913L13.7746 328.906ZM13.7475 340.903L13.7339 346.901L16.7339 346.908L16.7475 340.909L13.7475 340.903ZM13.7203 352.899L13.7068 358.897L16.7068 358.904L16.7203 352.906L13.7203 352.899ZM13.6932 364.896L13.6797 370.894L16.6797 370.901L16.6932 364.903L13.6932 364.896ZM13.6661 376.892L13.6525 382.891L16.6525 382.898L16.6661 376.899L13.6661 376.892ZM13.639 388.889L13.6254 394.887L16.6254 394.894L16.639 388.896L13.639 388.889ZM13.6119 400.886L13.5983 406.884L16.5983 406.891L16.6119 400.892L13.6119 400.886ZM13.5847 412.882L13.5712 418.881L16.5712 418.887L16.5847 412.889L13.5847 412.882ZM13.5576 424.879L13.5441 430.877L16.5441 430.884L16.5576 424.886L13.5576 424.879ZM13.5305 436.875L13.517 442.874L16.5169 442.881L16.5305 436.882L13.5305 436.875ZM13.5034 448.872L13.4898 454.87L16.4898 454.877L16.5034 448.879L13.5034 448.872ZM13.4763 460.869L13.4627 466.867L16.4627 466.874L16.4763 460.875L13.4763 460.869ZM13.4492 472.865L13.4356 478.864L16.4356 478.87L16.4491 472.872L13.4492 472.865ZM13.422 484.862L13.4085 490.86L16.4085 490.867L16.422 484.869L13.422 484.862ZM13.3949 496.859L13.3814 502.857L16.3814 502.864L16.3949 496.865L13.3949 496.859ZM13.3678 508.855L13.3542 514.853L16.3542 514.86L16.3678 508.862L13.3678 508.855ZM13.3407 520.852L13.3271 526.85L16.3271 526.857L16.3407 520.859L13.3407 520.852ZM13.3136 532.848L13.3 538.847L16.3 538.853L16.3136 532.855L13.3136 532.848ZM13.2864 544.845L13.2729 550.843L16.2729 550.85L16.2864 544.852L13.2864 544.845ZM13.2593 556.841L13.2458 562.84L16.2458 562.846L16.2593 556.848L13.2593 556.841ZM13.2322 568.838L13.2186 574.836L16.2186 574.843L16.2322 568.845L13.2322 568.838ZM13.2051 580.834L13.1915 586.833L16.1915 586.84L16.2051 580.841L13.2051 580.834ZM13.178 592.831L13.1644 598.829L16.1644 598.836L16.178 592.838L13.178 592.831ZM13.1509 604.828L13.1373 610.826L16.1373 610.833L16.1508 604.834L13.1509 604.828ZM13.1237 616.824L13.1102 622.822L16.1102 622.829L16.1237 616.831L13.1237 616.824ZM13.0966 628.821L13.0831 634.819L16.083 634.826L16.0966 628.827L13.0966 628.821ZM13.0695 640.817L13.0559 646.816L16.0559 646.822L16.0695 640.824L13.0695 640.817ZM13.0424 652.814L13.0288 658.812L16.0288 658.819L16.0424 652.821L13.0424 652.814ZM13.0153 664.81L13.0017 670.809L16.0017 670.815L16.0153 664.817L13.0153 664.81ZM12.9881 676.807L12.9746 682.805L15.9746 682.812L15.9881 676.814L12.9881 676.807ZM12.961 688.803L12.9475 694.802L15.9475 694.808L15.961 688.81L12.961 688.803ZM12.9339 700.8L12.9203 706.798L15.9203 706.805L15.9339 700.807L12.9339 700.8ZM12.9068 712.797L12.8932 718.795L15.8932 718.802L15.9068 712.803L12.9068 712.797ZM12.8797 724.793L12.8661 730.791L15.8661 730.798L15.8797 724.8L12.8797 724.793ZM12.8525 736.79L12.839 742.788L15.839 742.795L15.8525 736.796L12.8525 736.79ZM12.8254 748.786L12.8119 754.784L15.8119 754.791L15.8254 748.793L12.8254 748.786ZM12.7983 760.783L12.7848 766.781L15.7847 766.788L15.7983 760.79L12.7983 760.783ZM12.7712 772.779L12.7576 778.778L15.7576 778.784L15.7712 772.786L12.7712 772.779ZM12.7441 784.776L12.7305 790.774L15.7305 790.781L15.7441 784.783L12.7441 784.776ZM12.717 796.772L12.7034 802.771L15.7034 802.777L15.7169 796.779L12.717 796.772ZM12.6898 808.769L12.6763 814.767L15.6763 814.774L15.6898 808.776L12.6898 808.769ZM12.6627 820.765L12.6492 826.764L15.6492 826.771L15.6627 820.772L12.6627 820.765ZM12.6356 832.762L12.622 838.76L15.622 838.767L15.6356 832.769L12.6356 832.762ZM12.6085 844.759L12.5949 850.757L15.5949 850.764L15.6085 844.765L12.6085 844.759ZM12.5814 856.755L12.5678 862.753L15.5678 862.76L15.5814 856.762L12.5814 856.755ZM12.5542 868.752L12.5407 874.75L15.5407 874.757L15.5542 868.758L12.5542 868.752ZM12.5271 880.748L12.5136 886.747L15.5136 886.753L15.5271 880.755L12.5271 880.748ZM12.5 892.745L12.4864 898.743L15.4864 898.75L15.5 892.752L12.5 892.745ZM12.4729 904.741L12.4593 910.74L15.4593 910.746L15.4729 904.748L12.4729 904.741ZM12.4458 916.738L12.4322 922.736L15.4322 922.743L15.4458 916.745L12.4458 916.738ZM12.4187 928.734L12.4051 934.733L15.4051 934.74L15.4186 928.741L12.4187 928.734ZM12.3915 940.731L12.378 946.729L15.378 946.736L15.3915 940.738L12.3915 940.731ZM12.3644 952.728L12.3509 958.726L15.3508 958.733L15.3644 952.734L12.3644 952.728ZM12.3373 964.724L12.3237 970.722L15.3237 970.729L15.3373 964.731L12.3373 964.724ZM12.3102 976.721L12.2966 982.719L15.2966 982.726L15.3102 976.727L12.3102 976.721ZM12.2831 988.717L12.2695 994.715L15.2695 994.722L15.2831 988.724L12.2831 988.717ZM12.2559 1000.71L12.2424 1006.71L15.2424 1006.72L15.2559 1000.72L12.2559 1000.71ZM12.2288 1012.71L12.2153 1018.71L15.2153 1018.72L15.2288 1012.72L12.2288 1012.71ZM12.2017 1024.71L12.1881 1030.71L15.1881 1030.71L15.2017 1024.71L12.2017 1024.71ZM12.1746 1036.7L12.161 1042.7L15.161 1042.71L15.1746 1036.71L12.1746 1036.7ZM12.1475 1048.7L12.1339 1054.7L15.1339 1054.71L15.1475 1048.71L12.1475 1048.7ZM12.1203 1060.7L12.1068 1066.69L15.1068 1066.7L15.1203 1060.7L12.1203 1060.7ZM12.0932 1072.69L12.0797 1078.69L15.0797 1078.7L15.0932 1072.7L12.0932 1072.69ZM12.0661 1084.69L12.0526 1090.69L15.0525 1090.69L15.0661 1084.7L12.0661 1084.69ZM12.039 1096.69L12.0254 1102.68L15.0254 1102.69L15.039 1096.69L12.039 1096.69ZM12.0119 1108.68L11.9983 1114.68L14.9983 1114.69L15.0119 1108.69L12.0119 1108.68ZM11.9848 1120.68L11.9712 1126.68L14.9712 1126.68L14.9847 1120.69L11.9848 1120.68ZM11.9576 1132.68L11.9441 1138.67L14.9441 1138.68L14.9576 1132.68L11.9576 1132.68ZM11.9305 1144.67L11.917 1150.67L14.917 1150.68L14.9305 1144.68L11.9305 1144.67ZM11.9034 1156.67L11.8898 1162.67L14.8898 1162.67L14.9034 1156.68L11.9034 1156.67ZM11.8763 1168.67L11.8627 1174.66L14.8627 1174.67L14.8763 1168.67L11.8763 1168.67ZM11.8492 1180.66L11.8356 1186.66L14.8356 1186.67L14.8492 1180.67L11.8492 1180.66ZM11.822 1192.66L11.8085 1198.66L14.8085 1198.66L14.822 1192.67L11.822 1192.66ZM11.7949 1204.66L11.7814 1210.65L14.7814 1210.66L14.7949 1204.66L11.7949 1204.66ZM11.7678 1216.65L11.7542 1222.65L14.7542 1222.66L14.7678 1216.66L11.7678 1216.65ZM11.7407 1228.65L11.7271 1234.65L14.7271 1234.65L14.7407 1228.66L11.7407 1228.65ZM11.7136 1240.64L11.7 1246.64L14.7 1246.65L14.7136 1240.65L11.7136 1240.64ZM11.6865 1252.64L11.6729 1258.64L14.6729 1258.65L14.6864 1252.65L11.6865 1252.64ZM11.6593 1264.64L11.6458 1270.64L14.6458 1270.64L14.6593 1264.64L11.6593 1264.64ZM11.6322 1276.63L11.6187 1282.63L14.6186 1282.64L14.6322 1276.64L11.6322 1276.63ZM11.6051 1288.63L11.5915 1294.63L14.5915 1294.64L14.6051 1288.64L11.6051 1288.63ZM11.578 1300.63L11.5644 1306.63L14.5644 1306.63L14.578 1300.63L11.578 1300.63ZM11.5509 1312.62L11.5373 1318.62L14.5373 1318.63L14.5509 1312.63L11.5509 1312.62ZM11.5237 1324.62L11.5102 1330.62L14.5102 1330.63L14.5237 1324.63L11.5237 1324.62ZM11.4966 1336.62L11.4831 1342.62L14.4831 1342.62L14.4966 1336.62L11.4966 1336.62ZM11.4695 1348.61L11.4559 1354.61L14.4559 1354.62L14.4695 1348.62L11.4695 1348.61ZM11.4424 1360.61L11.4288 1366.61L14.4288 1366.62L14.4424 1360.62L11.4424 1360.61ZM11.4153 1372.61L11.4017 1378.61L14.4017 1378.61L14.4153 1372.61L11.4153 1372.61ZM11.3881 1384.6L11.3746 1390.6L14.3746 1390.61L14.3881 1384.61L11.3881 1384.6ZM11.361 1396.6L11.3475 1402.6L14.3475 1402.61L14.361 1396.61L11.361 1396.6ZM11.3339 1408.6L11.3204 1414.59L14.3203 1414.6L14.3339 1408.6L11.3339 1408.6ZM11.3068 1420.59L11.2932 1426.59L14.2932 1426.6L14.3068 1420.6L11.3068 1420.59ZM11.2797 1432.59L11.2661 1438.59L14.2661 1438.59L14.2797 1432.6L11.2797 1432.59ZM11.2526 1444.59L11.239 1450.58L14.239 1450.59L14.2525 1444.59L11.2526 1444.59ZM11.2254 1456.58L11.2119 1462.58L14.2119 1462.59L14.2254 1456.59L11.2254 1456.58ZM11.1983 1468.58L11.1848 1474.58L14.1848 1474.58L14.1983 1468.59L11.1983 1468.58ZM11.1712 1480.58L11.1576 1486.57L14.1576 1486.58L14.1712 1480.58L11.1712 1480.58ZM11.1441 1492.57L11.1305 1498.57L14.1305 1498.58L14.1441 1492.58L11.1441 1492.57ZM11.117 1504.57L11.1034 1510.57L14.1034 1510.57L14.117 1504.58L11.117 1504.57ZM11.0898 1516.57L11.0763 1522.56L14.0763 1522.57L14.0898 1516.57L11.0898 1516.57ZM11.0627 1528.56L11.0492 1534.56L14.0492 1534.57L14.0627 1528.57L11.0627 1528.56ZM11.0356 1540.56L11.022 1546.56L14.022 1546.56L14.0356 1540.57L11.0356 1540.56ZM11.0085 1552.56L10.9949 1558.55L13.9949 1558.56L14.0085 1552.56L11.0085 1552.56ZM10.9814 1564.55L10.9678 1570.55L13.9678 1570.56L13.9814 1564.56L10.9814 1564.55ZM10.9543 1576.55L10.9407 1582.55L13.9407 1582.55L13.9542 1576.55L10.9543 1576.55ZM10.9271 1588.54L10.9136 1594.54L13.9136 1594.55L13.9271 1588.55L10.9271 1588.54ZM10.9 1600.54L10.8865 1606.54L13.8864 1606.55L13.9 1600.55L10.9 1600.54ZM10.8729 1612.54L10.8593 1618.54L13.8593 1618.54L13.8729 1612.54L10.8729 1612.54ZM10.8458 1624.53L10.8322 1630.53L13.8322 1630.54L13.8458 1624.54L10.8458 1624.53ZM10.8187 1636.53L10.8051 1642.53L13.8051 1642.54L13.8187 1636.54L10.8187 1636.53ZM10.7915 1648.53L10.778 1654.53L13.778 1654.53L13.7915 1648.53L10.7915 1648.53ZM10.7644 1660.52L10.7509 1666.52L13.7509 1666.53L13.7644 1660.53L10.7644 1660.52ZM10.7373 1672.52L10.7237 1678.52L13.7237 1678.53L13.7373 1672.53L10.7373 1672.52ZM10.7102 1684.52L10.6966 1690.52L13.6966 1690.52L13.7102 1684.52L10.7102 1684.52ZM10.6831 1696.51L10.6695 1702.51L13.6695 1702.52L13.6831 1696.52L10.6831 1696.51ZM10.6559 1708.51L10.6424 1714.51L13.6424 1714.52L13.6559 1708.52L10.6559 1708.51ZM10.6288 1720.51L10.6153 1726.51L13.6153 1726.51L13.6288 1720.51L10.6288 1720.51ZM10.6017 1732.5L10.5882 1738.5L13.5881 1738.51L13.6017 1732.51L10.6017 1732.5ZM10.5746 1744.5L10.561 1750.5L13.561 1750.51L13.5746 1744.51L10.5746 1744.5ZM10.5475 1756.5L10.5339 1762.49L13.5339 1762.5L13.5475 1756.5L10.5475 1756.5ZM10.5204 1768.49L10.5068 1774.49L13.5068 1774.5L13.5203 1768.5L10.5204 1768.49ZM10.4932 1780.49L10.4797 1786.49L13.4797 1786.49L13.4932 1780.5L10.4932 1780.49ZM10.4661 1792.49L10.4526 1798.48L13.4526 1798.49L13.4661 1792.49L10.4661 1792.49ZM10.439 1804.48L10.4254 1810.48L13.4254 1810.49L13.439 1804.49L10.439 1804.48ZM10.4119 1816.48L10.3983 1822.48L13.3983 1822.48L13.4119 1816.49L10.4119 1816.48ZM10.3848 1828.48L10.3712 1834.47L13.3712 1834.48L13.3848 1828.48L10.3848 1828.48ZM10.3576 1840.47L10.3441 1846.47L13.3441 1846.48L13.3576 1840.48L10.3576 1840.47ZM10.3305 1852.47L10.317 1858.47L13.317 1858.47L13.3305 1852.48L10.3305 1852.47ZM10.3034 1864.47L10.2898 1870.46L13.2898 1870.47L13.3034 1864.47L10.3034 1864.47ZM10.2763 1876.46L10.2627 1882.46L13.2627 1882.47L13.2763 1876.47L10.2763 1876.46ZM10.2492 1888.46L10.2356 1894.46L13.2356 1894.46L13.2492 1888.47L10.2492 1888.46ZM10.2221 1900.46L10.2085 1906.45L13.2085 1906.46L13.222 1900.46L10.2221 1900.46ZM10.1949 1912.45L10.1814 1918.45L13.1814 1918.46L13.1949 1912.46L10.1949 1912.45ZM10.1678 1924.45L10.1543 1930.45L13.1542 1930.45L13.1678 1924.46L10.1678 1924.45ZM10.1407 1936.44L10.1271 1942.44L13.1271 1942.45L13.1407 1936.45L10.1407 1936.44ZM10.1136 1948.44L10.1 1954.44L13.1 1954.45L13.1136 1948.45L10.1136 1948.44ZM10.0865 1960.44L10.0729 1966.44L13.0729 1966.44L13.0865 1960.44L10.0865 1960.44ZM10.0593 1972.43L10.0458 1978.43L13.0458 1978.44L13.0593 1972.44L10.0593 1972.43ZM10.0322 1984.43L10.0187 1990.43L13.0187 1990.44L13.0322 1984.44L10.0322 1984.43ZM10.0051 1996.43L9.99155 2002.43L12.9915 2002.43L13.0051 1996.43L10.0051 1996.43ZM9.97799 2008.42L9.96443 2014.42L12.9644 2014.43L12.978 2008.43L9.97799 2008.42ZM9.95087 2020.42L9.93731 2026.42L12.9373 2026.43L12.9509 2020.43L9.95087 2020.42ZM9.92375 2032.42L9.91019 2038.42L12.9102 2038.42L12.9237 2032.42L9.92375 2032.42ZM9.89663 2044.41L9.88307 2050.41L12.8831 2050.42L12.8966 2044.42L9.89663 2044.41ZM9.86951 2056.41L9.85595 2062.41L12.8559 2062.42L12.8695 2056.42L9.86951 2056.41ZM9.84239 2068.41L9.82883 2074.41L12.8288 2074.41L12.8424 2068.41L9.84239 2068.41ZM9.81528 2080.4L9.80172 2086.4L12.8017 2086.41L12.8153 2080.41L9.81528 2080.4ZM9.78816 2092.4L9.7746 2098.4L12.7746 2098.4L12.7881 2092.41L9.78816 2092.4ZM9.76104 2104.4L9.74748 2110.39L12.7475 2110.4L12.761 2104.4L9.76104 2104.4ZM9.73392 2116.39L9.72036 2122.39L12.7204 2122.4L12.7339 2116.4L9.73392 2116.39ZM9.7068 2128.39L9.69324 2134.39L12.6932 2134.39L12.7068 2128.4L9.7068 2128.39ZM9.67968 2140.39L9.66612 2146.38L12.6661 2146.39L12.6797 2140.39L9.67968 2140.39ZM9.65256 2152.38L9.639 2158.38L12.639 2158.39L12.6526 2152.39L9.65256 2152.38ZM9.62545 2164.38L9.61189 2170.38L12.6119 2170.38L12.6254 2164.39L9.62545 2164.38ZM9.59833 2176.38L9.58477 2182.37L12.5848 2182.38L12.5983 2176.38L9.59833 2176.38ZM9.57121 2188.37L9.55765 2194.37L12.5576 2194.38L12.5712 2188.38L9.57121 2188.37ZM9.54409 2200.37L9.53053 2206.37L12.5305 2206.37L12.5441 2200.38L9.54409 2200.37ZM9.51697 2212.37L9.50341 2218.36L12.5034 2218.37L12.517 2212.37L9.51697 2212.37ZM9.48985 2224.36L9.47629 2230.36L12.4763 2230.37L12.4898 2224.37L9.48985 2224.36ZM9.46273 2236.36L9.44918 2242.36L12.4492 2242.36L12.4627 2236.37L9.46273 2236.36ZM9.43562 2248.36L9.42206 2254.35L12.422 2254.36L12.4356 2248.36L9.43562 2248.36ZM9.4085 2260.35L9.39494 2266.35L12.3949 2266.36L12.4085 2260.36L9.4085 2260.35ZM9.38138 2272.35L9.36782 2278.35L12.3678 2278.35L12.3814 2272.35L9.38138 2272.35ZM9.35426 2284.34L9.3407 2290.34L12.3407 2290.35L12.3543 2284.35L9.35426 2284.34ZM9.32714 2296.34L9.31358 2302.34L12.3136 2302.35L12.3271 2296.35L9.32714 2296.34ZM9.30002 2308.34L9.28646 2314.34L12.2865 2314.34L12.3 2308.34L9.30002 2308.34ZM9.2729 2320.33L9.25935 2326.33L12.2593 2326.34L12.2729 2320.34L9.2729 2320.33ZM9.24579 2332.33L9.23223 2338.33L12.2322 2338.34L12.2458 2332.34L9.24579 2332.33ZM9.21867 2344.33L9.20511 2350.33L12.2051 2350.33L12.2187 2344.33L9.21867 2344.33ZM9.19155 2356.32L9.17799 2362.32L12.178 2362.33L12.1915 2356.33L9.19155 2356.32ZM9.16443 2368.32L9.15087 2374.32L12.1509 2374.33L12.1644 2368.33L9.16443 2368.32ZM9.13731 2380.32L9.12375 2386.32L12.1237 2386.32L12.1373 2380.32L9.13731 2380.32ZM9.11019 2392.31L9.09663 2398.31L12.0966 2398.32L12.1102 2392.32L9.11019 2392.31ZM9.08308 2404.31L9.06952 2410.31L12.0695 2410.32L12.0831 2404.32L9.08308 2404.31ZM9.05596 2416.31L9.0424 2422.31L12.0424 2422.31L12.0559 2416.31L9.05596 2416.31ZM9.02884 2428.3L9.01528 2434.3L12.0153 2434.31L12.0288 2428.31L9.02884 2428.3ZM9.00172 2440.3L8.98816 2446.3L11.9882 2446.3L12.0017 2440.31L9.00172 2440.3ZM8.9746 2452.3L8.96104 2458.29L11.961 2458.3L11.9746 2452.3L8.9746 2452.3ZM8.94748 2464.29L8.93392 2470.29L11.9339 2470.3L11.9475 2464.3L8.94748 2464.29ZM8.92036 2476.29L8.9068 2482.29L11.9068 2482.29L11.9204 2476.3L8.92036 2476.29ZM8.89325 2488.29L8.87969 2494.28L11.8797 2494.29L11.8932 2488.29L8.89325 2488.29ZM8.86613 2500.28L8.85257 2506.28L11.8526 2506.29L11.8661 2500.29L8.86613 2500.28ZM8.83901 2512.28L8.82545 2518.28L11.8254 2518.28L11.839 2512.29L8.83901 2512.28ZM8.81189 2524.28L8.79833 2530.27L11.7983 2530.28L11.8119 2524.28L8.81189 2524.28ZM8.78477 2536.27L8.77121 2542.27L11.7712 2542.28L11.7848 2536.28L8.78477 2536.27ZM8.75765 2548.27L8.74409 2554.27L11.7441 2554.27L11.7576 2548.28L8.75765 2548.27ZM8.73053 2560.27L8.71698 2566.26L11.717 2566.27L11.7305 2560.27L8.73053 2560.27ZM8.70342 2572.26L8.68986 2578.26L11.6898 2578.27L11.7034 2572.27L8.70342 2572.26ZM8.6763 2584.26L8.66274 2590.26L11.6627 2590.26L11.6763 2584.27L8.6763 2584.26ZM8.64918 2596.26L8.63562 2602.25L11.6356 2602.26L11.6492 2596.26L8.64918 2596.26ZM8.62206 2608.25L8.6085 2614.25L11.6085 2614.26L11.6221 2608.26L8.62206 2608.25ZM8.59494 2620.25L8.58138 2626.25L11.5814 2626.25L11.5949 2620.25L8.59494 2620.25ZM8.56782 2632.24L8.55426 2638.24L11.5543 2638.25L11.5678 2632.25L8.56782 2632.24ZM8.54071 2644.24L8.52715 2650.24L11.5271 2650.25L11.5407 2644.25L8.54071 2644.24ZM8.51359 2656.24L8.50003 2662.24L11.5 2662.24L11.5136 2656.24L8.51359 2656.24ZM8.48647 2668.23L8.47291 2674.23L11.4729 2674.24L11.4865 2668.24L8.48647 2668.23ZM8.45935 2680.23L8.44579 2686.23L11.4458 2686.24L11.4593 2680.24L8.45935 2680.23ZM8.43223 2692.23L8.41867 2698.23L11.4187 2698.23L11.4322 2692.23L8.43223 2692.23ZM8.40511 2704.22L8.39155 2710.22L11.3915 2710.23L11.4051 2704.23L8.40511 2704.22ZM8.37799 2716.22L8.36443 2722.22L11.3644 2722.23L11.378 2716.23L8.37799 2716.22ZM8.35088 2728.22L8.33732 2734.22L11.3373 2734.22L11.3509 2728.22L8.35088 2728.22ZM8.32376 2740.21L8.3102 2746.21L11.3102 2746.22L11.3237 2740.22L8.32376 2740.21ZM8.29664 2752.21L8.28308 2758.21L11.2831 2758.22L11.2966 2752.22L8.29664 2752.21ZM8.26952 2764.21L8.25596 2770.2L11.256 2770.21L11.2695 2764.21L8.26952 2764.21ZM8.2424 2776.2L8.22884 2782.2L11.2288 2782.21L11.2424 2776.21L8.2424 2776.2ZM8.21528 2788.2L8.20172 2794.2L11.2017 2794.21L11.2153 2788.21L8.21528 2788.2ZM8.18816 2800.2L8.17461 2806.19L11.1746 2806.2L11.1882 2800.2L8.18816 2800.2ZM8.16105 2812.19L8.14749 2818.19L11.1475 2818.2L11.161 2812.2L8.16105 2812.19ZM8.13393 2824.19L8.12037 2830.19L11.1204 2830.19L11.1339 2824.2L8.13393 2824.19ZM8.10681 2836.19L8.09325 2842.18L11.0932 2842.19L11.1068 2836.19L8.10681 2836.19ZM8.07969 2848.18L8.06613 2854.18L11.0661 2854.19L11.0797 2848.19L8.07969 2848.18ZM8.05257 2860.18L8.03901 2866.18L11.039 2866.18L11.0526 2860.19L8.05257 2860.18ZM8.02545 2872.18L8.01189 2878.17L11.0119 2878.18L11.0254 2872.18L8.02545 2872.18ZM7.99833 2884.17L7.98478 2890.17L10.9848 2890.18L10.9983 2884.18L7.99833 2884.17ZM7.97122 2896.17L7.95766 2902.17L10.9576 2902.17L10.9712 2896.18L7.97122 2896.17ZM7.9441 2908.17L7.93054 2914.16L10.9305 2914.17L10.9441 2908.17L7.9441 2908.17ZM7.91698 2920.16L7.90342 2926.16L10.9034 2926.17L10.917 2920.17L7.91698 2920.16ZM7.88986 2932.16L7.8763 2938.16L10.8763 2938.16L10.8899 2932.17L7.88986 2932.16ZM7.86274 2944.16L7.84918 2950.15L10.8492 2950.16L10.8627 2944.16L7.86274 2944.16ZM7.83562 2956.15L7.82206 2962.15L10.8221 2962.16L10.8356 2956.16L7.83562 2956.15ZM7.80851 2968.15L7.79495 2974.15L10.7949 2974.15L10.8085 2968.15L7.80851 2968.15ZM7.78139 2980.14L7.76783 2986.14L10.7678 2986.15L10.7814 2980.15L7.78139 2980.14ZM7.75427 2992.14L7.74071 2998.14L10.7407 2998.15L10.7543 2992.15L7.75427 2992.14ZM7.72715 3004.14L7.71359 3010.14L10.7136 3010.14L10.7271 3004.14L7.72715 3004.14ZM7.70003 3016.13L7.68647 3022.13L10.6865 3022.14L10.7 3016.14L7.70003 3016.13ZM7.67291 3028.13L7.65935 3034.13L10.6593 3034.14L10.6729 3028.14L7.67291 3028.13ZM7.64579 3040.13L7.63223 3046.13L10.6322 3046.13L10.6458 3040.13L7.64579 3040.13ZM7.61868 3052.12L7.60512 3058.12L10.6051 3058.13L10.6187 3052.13L7.61868 3052.12ZM7.59156 3064.12L7.578 3070.12L10.578 3070.13L10.5915 3064.13L7.59156 3064.12ZM7.56444 3076.12L7.55088 3082.12L10.5509 3082.12L10.5644 3076.12L7.56444 3076.12ZM7.53732 3088.11L7.52376 3094.11L10.5238 3094.12L10.5373 3088.12L7.53732 3088.11ZM7.5102 3100.11L7.49664 3106.11L10.4966 3106.12L10.5102 3100.12L7.5102 3100.11ZM7.48308 3112.11L7.46952 3118.11L10.4695 3118.11L10.4831 3112.11L7.48308 3112.11ZM7.45596 3124.1L7.44241 3130.1L10.4424 3130.11L10.456 3124.11L7.45596 3124.1ZM7.42885 3136.1L7.41529 3142.1L10.4153 3142.1L10.4288 3136.11L7.42885 3136.1ZM7.40173 3148.1L7.38817 3154.09L10.3882 3154.1L10.4017 3148.1L7.40173 3148.1ZM7.37461 3160.09L7.36105 3166.09L10.361 3166.1L10.3746 3160.1L7.37461 3160.09ZM7.34749 3172.09L7.33393 3178.09L10.3339 3178.09L10.3475 3172.1L7.34749 3172.09ZM7.32037 3184.09L7.30681 3190.08L10.3068 3190.09L10.3204 3184.09L7.32037 3184.09ZM7.29325 3196.08L7.27969 3202.08L10.2797 3202.09L10.2932 3196.09L7.29325 3196.08ZM7.26614 3208.08L7.25258 3214.08L10.2526 3214.08L10.2661 3208.09L7.26614 3208.08ZM7.23902 3220.08L7.22546 3226.07L10.2254 3226.08L10.239 3220.08L7.23902 3220.08ZM7.2119 3232.07L7.19834 3238.07L10.1983 3238.08L10.2119 3232.08L7.2119 3232.07ZM7.18478 3244.07L7.17122 3250.07L10.1712 3250.07L10.1848 3244.08L7.18478 3244.07ZM7.15766 3256.07L7.1441 3262.06L10.1441 3262.07L10.1577 3256.07L7.15766 3256.07ZM7.13054 3268.06L7.11698 3274.06L10.117 3274.07L10.1305 3268.07L7.13054 3268.06ZM7.10342 3280.06L7.08986 3286.06L10.0899 3286.06L10.1034 3280.07L7.10342 3280.06ZM7.07631 3292.06L7.06275 3298.05L10.0627 3298.06L10.0763 3292.06L7.07631 3292.06ZM7.04919 3304.05L7.03563 3310.05L10.0356 3310.06L10.0492 3304.06L7.04919 3304.05ZM7.02207 3316.05L7.00851 3322.05L10.0085 3322.05L10.0221 3316.05L7.02207 3316.05ZM6.99495 3328.04L6.98139 3334.04L9.98138 3334.05L9.99494 3328.05L6.99495 3328.04ZM6.96783 3340.04L6.95427 3346.04L9.95426 3346.05L9.96782 3340.05L6.96783 3340.04ZM6.94071 3352.04L6.92715 3358.04L9.92715 3358.04L9.94071 3352.04L6.94071 3352.04ZM6.91359 3364.03L6.90004 3370.03L9.90003 3370.04L9.91359 3364.04L6.91359 3364.03ZM6.88648 3376.03L6.87292 3382.03L9.87291 3382.04L9.88647 3376.04L6.88648 3376.03ZM6.85936 3388.03L6.8458 3394.03L9.84579 3394.03L9.85935 3388.03L6.85936 3388.03ZM6.83224 3400.02L6.81868 3406.02L9.81867 3406.03L9.83223 3400.03L6.83224 3400.02ZM6.80512 3412.02L6.79156 3418.02L9.79155 3418.03L9.80511 3412.03L6.80512 3412.02ZM6.778 3424.02L6.76444 3430.02L9.76444 3430.02L9.77799 3424.02L6.778 3424.02ZM6.75088 3436.01L6.73732 3442.01L9.73732 3442.02L9.75088 3436.02L6.75088 3436.01ZM6.72376 3448.01L6.71021 3454.01L9.7102 3454.02L9.72376 3448.02L6.72376 3448.01ZM6.69665 3460.01L6.68309 3466L9.68308 3466.01L9.69664 3460.01L6.69665 3460.01ZM6.66953 3472L6.65597 3478L9.65596 3478.01L9.66952 3472.01L6.66953 3472ZM6.64241 3484L6.62885 3490L9.62884 3490L9.6424 3484.01L6.64241 3484ZM6.61529 3496L6.60173 3501.99L9.60172 3502L9.61528 3496L6.61529 3496ZM6.58817 3507.99L6.57461 3513.99L9.57461 3514L9.58816 3508L6.58817 3507.99ZM6.56105 3519.99L6.54749 3525.99L9.54749 3525.99L9.56105 3520L6.56105 3519.99ZM6.53394 3531.99L6.52038 3537.98L9.52037 3537.99L9.53393 3531.99L6.53394 3531.99ZM6.50682 3543.98L6.5 3547L9.5 3547L9.50681 3543.99L6.50682 3543.98Z" fill="black"/>
</svg>
